<svg xmlns="http://www.w3.org/2000/svg" width="312.029" height="557.174" viewBox="0 0 312.029 557.174"><g id="PPpink" transform="translate(0 30.37) rotate(-7)"><path id="Path_348" data-name="Path 348" d="M87.51,200.912c-1.449-1.014-2.955-1.883-4.432-2.81a41.655,41.655,0,0,1-3.563-5.331c-5.446-10.516-8.083-19.932-21.061-22.365-18.8-3.563-40.414.753-58.462-6.576.753,6.2,6.779,12.023,10.893,15.992,14.833,14.659,33.084,22.365,53.769,22.365,6.924,0,14.543-.319,21.235,2,8.546,6.258,14.891,13.5,21.96,21.554,4.2,10.342,7.851,20.917,11.212,31.607.521,13.877,1.593,27.754,3.245,41.457,4.23,35.025,12.544,69.442,23.553,102.932-1.8-2.173-3.592-4.317-5.359-6.431-8.054-9.763-16.629-19.091-25.407-28.246-.406-3.418-.55-6.895-1.014-10.313-2.636-16.745-12.6-31.2-26.131-41.37C66.332,299.208,40,291.676,16.677,278.147c.579,4.9,4.143,10.14,6.2,14.485,10.545,22.191,21.612,48.12,41.544,63.532,10.893,8.286,24.074,11.472,37.4,13.355,3.419.55,7.33.521,10.951,1.159,6.634,7.011,13.153,14.109,19.439,21.438,6.46,7.5,12.052,16.31,18.454,23.987,1.246,3.476,2.462,6.982,3.737,10.429,13.355,35.894,29.753,74.193,54.464,103.8,1.1,1.333,2.984-.348,2.26-1.738-14.659-29.115-30.709-56.84-43.832-86.534-2.9-29.984,6.142-63.358,18.628-93.545,1.477-.927,3.1-1.709,4.577-2.694,4.519-2.81,7.909-6.576,11.849-10.14,6.2-5.649,13.529-9.763,18.8-16.368,7.329-8.633,9.01-18.222,9.966-29.144.753-9.763,5.273-18.6,6.2-28.188-8.083,4.519-15.238,11.269-22.365,16.919-9.966,7.706-19.932,15.789-26.508,26.711-8,12.921-6.924,25.813-6.373,39.718-3.245,8.343-6.026,16.919-8.488,25.726q-.782,2.781-1.564,5.649a112.927,112.927,0,0,0-1.159-17.353c.55-3.187,1.912-6.373,2.376-9.56,1.68-11.269,3.013-25.928-.377-36.85-4.317-14.862-9.039-33.837-18.425-46.237-1.883,6.779-5.446,13.153-8.083,19.555-11.443,27.348,5.475,46.874,20.279,68.109.492,2.318,1.072,4.606,1.477,6.924,1.651,9.1.637,18.078.9,27.145-3.534,14.862-6.113,30.824-5.07,45.773-1.275-3.071-2.578-6.113-3.8-9.242a555.33,555.33,0,0,1-30.129-112.926c1.506-23.669,15.412-47.656,27.725-67.617,1.42-1.043,2.868-2,4.23-2.9,15.238-9.792,31.578-17.672,46.439-28.014,25.755-17.875,30.448-49.25,40.79-77.09-9.213,4.9-17.672,11.269-26.885,15.992-11.1,5.649-23.118,9.589-32.881,17.672-9.966,8.286-16.368,19.932-21.815,31.4a267.385,267.385,0,0,0-15.673,45.715c-9.792,16.165-20.6,35.923-23.379,55.247-6.316-44.006-6.2-89.229,2.231-132.539a97.056,97.056,0,0,1,16.716-15.847,27.6,27.6,0,0,1,5.244-1.449c5.389-.869,10.922.2,16.339-.145,8.575-.55,17.991-1.362,25.755-5.244,6.055-3.042,11.183-7.735,15.528-12.863,4.635-5.475,9.763-10.545,14.34-16.079,2.723-3.3,5.968-6.576,8.286-10.14-3.8.7-7.59,1.188-11.443,1.738-6.837.956-13.616,2.144-20.453,3.1-8.807,1.217-17.846,2.144-26.392,4.635A36.717,36.717,0,0,0,154.6,132.947c-4.027,6.142-7.474,12.747-11.009,19.149a106.744,106.744,0,0,0-11.588,11.588,312.143,312.143,0,0,1,13.587-46.15,97.507,97.507,0,0,1,8.43-6.576c15.036-11.1,32.708-18.976,45.483-33.084,10.342-11.269,14.109-24.828,17.846-39.284,3.187-12.226,8.083-25.755,8.662-38.531-5.07,6.026-13.529,9.763-20.134,13.732C182.561,27.9,158.69,43.313,147.217,69.067c-7.214,16.339-7.88,32.794-8.228,49.8-14.92,39.6-20.743,82.421-20.4,125.21-5.852-21.119-15.123-41.573-26.566-60.693a75.51,75.51,0,0,1-1.043-8.865c-.927-15.412-.753-27.638-10.516-40.79-13.732-18.6-36.3-27.812-50.756-45.483.579,5.446,1.68,10.893,2.057,16.542C32.35,114,31.6,123.763,35.16,132.6c3.766,9.039,11.1,12.776,18.425,18.222,10.661,8.141,19.12,18.483,29.26,27.145q4.737,7.518,9.184,15.238c3.534,6.229,6.75,12.6,9.763,19.063a118.267,118.267,0,0,0-14.456-11.212Z" transform="translate(0.01 -0.06)" fill="#fef2ef"></path></g></svg>