<svg xmlns="http://www.w3.org/2000/svg" width="847.408" height="834.775" viewBox="0 0 847.408 834.775"><g id="Last_plant" data-name="Last plant" transform="matrix(0.695, 0.719, -0.719, 0.695, 611.987, 0)" opacity="0.1"><path id="Path_349" data-name="Path 349" d="M258.372,599.544c-17.332,10.152-44.678,28.307-53.549,49.708-9.466,8.643-17.743,18.155-23.871,28.4,2.652-23.962,4.619-48.107,5.716-72.253,7.683-15.274,17.835-27.483,29.038-38.687,3.75-.549,7.591-.686,10.7-.915,25.243-1.646,50.988,8.506,70.012-14.771,17.011-21.264,25.288-58.488,24.008-85.057-9.878,3.247-18.886,11.021-27.438,16.691-15.411,9.878-32.514,17.194-46.1,29.4-13.81,12.9-31.6,33.565-41.065,52.5a138.4,138.4,0,0,0-18.566,26.34,740.483,740.483,0,0,0-2.744-91.23c-.091-1.143-.274-2.286-.366-3.475a238.5,238.5,0,0,1,26.569-45.5c1.692-.412,3.521-.686,5.4-1.052,22.545-4.482,48.931-7.408,69.006-19.755,15.731-9.695,15.136-20.761,18.52-37.087,2.378-13.307,9.512-23.368,16.92-34.434-34.846,7.088-70.286,3.887-96.672,31.508-16.92,17.469-30.73,41.2-32.011,65.851A117.851,117.851,0,0,0,182,475.754q-3.567-34.023-8.048-67.954v-.137c-.274-2.149-.549-4.253-.823-6.4,6.219-11.524,11.844-22.956,18.063-33.977,1.875-.457,3.887-.64,5.808-.915,18.795-3.521,46.507.64,55.424-20.258,5.762-13.673,3.841-29.13,7.866-42.62,2.7-9.923,9.329-16.325,14.679-24.648-27.026,7.362-71.612,22.133-87.343,46.553-7.82,12.027-5.579,24.648-4.893,37.544a166.09,166.09,0,0,0-11.387,25.746c-3.155-22.682-6.539-45.272-10.2-67.908a3.607,3.607,0,0,0,1.1-1.646c2.972-10.152,8.186-18.841,14.13-27.072,2.332-.229,4.71-.137,7-.229,19.8-.549,32.285.549,43.443-18.246,11.981-19.481,14.725-42.117,23.734-62.6A224.26,224.26,0,0,1,215.8,227.26c-9.923,4.024-24.694,4.756-32.88,11.844-11.615,10.381-11.067,28.032-11.387,43.489a108.839,108.839,0,0,0-12.713,23.551q-4.87-29.5-10.152-58.9a3.975,3.975,0,0,0-.229-1.738c0-.091-.091-.183-.137-.274-.5-2.79-1.006-5.625-1.509-8.414a362.291,362.291,0,0,0,25.2-38.87c2.607-.412,5.213-.686,7.408-1.052,18.978-3.8,37-9.375,46.05-28.627,9.878-21.95,5.122-50.623,4.207-73.807-9.512,6.631-20.3,11.387-29.816,18.017-17.743,12.484-36.584,24.74-37.681,47.925-.686,10.929.5,23.871-.183,35.989-5.945,10.929-11.432,22.087-16.508,33.291q-6.791-37.247-13.9-74.4c1.418-4.3,3.978-8.14,6.585-11.981,10.2-15.777,15.594-28.855,8.277-47.925C133.256,62.085,107.967,33.138,93.105.03c-5.762,9.695-4.573,25.06-5.4,35.76-1.052,18.475-2.058,36.126,1.372,54.464,4.8,23.825,18.612,41.568,36.812,56.933q7.2,40.676,14.13,81.4a185.37,185.37,0,0,0-19.252-27.346c-2.515-34.846-23.6-58.351-51.674-78.746C60.226,116,51.354,109.552,42.163,103.653c15.365,24.237.777,52.132,13.307,75.088,10.792,19.938,28.307,21.219,47.284,25.38a48.276,48.276,0,0,1,5.9,1.418c12.118,13.765,24.1,27.666,34.3,43.031a3.1,3.1,0,0,0,.549.549q4.733,28.261,9.146,56.659c-9.649-14.039-20.624-27.849-33.291-39.465-7.134-15.777-15.685-31.828-30.273-40.516-12.759-8-28.581-9.466-42.62-13.856-11.478-4.07-21.767-10.2-33.337-13.49,7.225,11.89,14.313,24.008,19.8,36.858,4.436,10.564,8.14,22.362,17.1,30.044,17.1,15.365,40.059,11.524,61.186,13.4,1.829.183,3.613.366,5.4.64,13.216,12.8,25.334,26.935,36.949,41.568a3.033,3.033,0,0,0,1.463,1.006q5.488,36.561,10.152,73.259a147.127,147.127,0,0,0-21.722-21.63c-9.237-13.582-20.9-26.935-31.462-38.687C88.532,308.2,67.863,316.2,36.538,313.414c-8.369-.64-16.874-3.7-25.609-3.7,14.588,18.246,26.157,44.175,44.769,57.665,19.481,13.993,49.662,20.03,73.167,15.319,3.7-.594,7.134-1.646,10.792-1.646a187.557,187.557,0,0,1,27.163,27.712q4.459,36.9,7.637,73.945a185.487,185.487,0,0,0-31.919-27.392c-11.387-19.8-22.042-36.264-45.547-43.855-17.926-5.9-36.767-10.381-55.2-16.143C29.541,391.2,13.033,382.192,0,382.74c9.878,11.432,19.572,23.185,28.993,34.754,12.073,15.136,23.962,34.526,40.7,44.495,20.67,12.713,46.873,6.036,69.738,5.716.549,0,1.1,0,1.646.046A301.031,301.031,0,0,1,175.83,497.7c.046.686.137,1.326.183,2.012a783.68,783.68,0,0,1,1.235,94.432A147.071,147.071,0,0,0,152.371,567.9c-9.6-17.652-25.7-33.565-40.654-45.547-19.572-15.228-39.876-13.81-62.055-22.636-10.838-4.482-25.06-13.307-36.949-12.073,7.637,10.518,15,20.853,21.356,32.194,6.859,13.216,11.341,28.993,22.682,39.327C77.877,577.731,114.1,577,140.344,578.326c2.927.137,5.991.137,9.009.366a163.727,163.727,0,0,1,27.255,28.9c-1.189,21.036-2.972,41.98-5.167,62.878-1.555,14.816-3.7,29.587-6.082,44.312a206.64,206.64,0,0,0-13.216-25.151c-3.064-24.6-11.8-51.354-31.142-66.811-22.728-17.926-52.589-30.5-80.438-37.178-7.957-1.966-15.96-3.933-22.956-8.872,5.076,10.2,11.707,19.709,16.783,29.861,6.356,13.353,9.923,29.358,19.709,40.333,19.344,22.27,51.994,30.182,78.2,40.2a45.514,45.514,0,0,1,4.893,1.966,291.224,291.224,0,0,1,25.517,38.5,3.23,3.23,0,0,0,.32.412c-6.859,40.059-14.862,80.027-17.56,120.314-.183,2.972,4.07,3.247,4.939.686,15.594-45.638,22-95.666,27.483-144.185,4.619-19.344,16.828-34.114,31.965-46.873,3.155-.5,6.311-.777,9.192-1.052,23.048-3.338,45.775,4.573,67.634-7.454,30.181-16.646,38.413-49.845,52.223-79.021-23.825,16.005-55.607,14.588-80.575,29.13Z" transform="translate(0 -0.03)"></path></g></svg>