<svg xmlns="http://www.w3.org/2000/svg" width="352.07" height="619.918" viewBox="0 0 352.07 619.918"><g id="Reverse_plant" data-name="Reverse plant" transform="translate(344.38 621.324) rotate(-179)" opacity="0.1"><g id="Group_150" data-name="Group 150" transform="translate(0 0)"><path id="Path_241" data-name="Path 241" d="M43.312,614.833c-4.414-2.69-4.552-8.69-5.448-13.31-3.069-26.275-5.31-52.654-8.034-78.964-4.759-43.448-7.69-87.067-5.965-130.791.448-36.689,4.793-73.344,14.276-108.826,6.207-23.62,16.862-45.654,26.689-67.93,4.828-10.965,9.138-22.172,14.586-32.827a389.2,389.2,0,0,1,28.931-46.516,269.314,269.314,0,0,1,17.379-21.724,123.88,123.88,0,0,1,9.931-11.724c6.069-6.276,11.827-12.758,17.482-19.413,3-3.345,6.172-6.414,8.69-10.138,2.517-3.793,4.793-7.758,7.207-11.62,13.9-23.138,28.931-42.068,57.344-46.068,8.586-1.655,17.345-2.241,25.931-3.9a134.96,134.96,0,0,0,15.517-4.448c5.069-1.724,10-3.724,14.862-5.931,4.931-2.276,5.621,1.379,3.138,5.655-6.965,12-14.551,23.793-23.448,34.448-18.724,21.586-38.241,31.655-66.309,35.62-10.379,1.379-21,3-30.827,6.483-3.414,1.345-7.207,2.1-9.655,5.069-6.552,6.172-12.862,12.586-19.069,19.1-2.828,2.931-5.586,5.9-8.276,8.931-4,5.517-7.517,11.31-11.276,17-9.689,14.758-20.448,28.448-28.758,44-7.379,15.1-11.655,31.517-18.9,46.689-5.9,12.758-12.758,25.448-17.551,38.62-3,8.724-4.759,17.827-6.69,26.827C40.45,311.528,34.691,333.8,33.278,356.665,31.45,389.8,33.14,423.25,35.14,456.284c1.552,17.793,2.1,35.724,4.276,53.344,1.586,11.586,4.31,23.034,5.552,34.655,1.172,11.9,1.69,23.9,3,35.792.414,8.207,6.793,39.861-4.69,34.793h0Zm2.207-2.759s.207-.069.241-.172a8.661,8.661,0,0,0,.586-1.9c.724-3.862.414-7.827.207-11.689-.379-5.345-1.069-10.621-1.621-15.931-1.345-11.931-2-23.965-3.034-35.93-1.241-13.069-4.448-25.827-6.034-38.827-3.586-41.206-6.517-82.343-6.621-123.722.034-10.862.207-21.724,1.172-32.551,1.483-17.034,5.172-33.758,8.793-50.447,3.448-15.1,5.586-30.62,11.448-45.034,5.759-14.1,13.207-27.413,19.1-41.448,3.172-7.517,5.862-15.172,8.689-22.827-4.207,9.379-8.1,18.9-12.241,28.31-6.931,15.586-14.276,31.206-19.862,47.275-8.793,25.862-13.551,52.93-16.758,80-2.828,29.931-3.069,59.9-2.759,89.93,1.207,46.137,7.241,91.86,11.448,137.791.517,5.138,1.034,10.241,1.552,15.379.759,4.621,1.172,21.172,5.655,21.758h0ZM160.793,81.049c13.448-5.517,28.206-6.621,42.344-9.138,12.586-2.552,24.931-6.586,35.482-14.069,19.724-13.207,33.137-33.551,44.723-53.827A171.572,171.572,0,0,1,256,13.637c-10.655,2.517-21.655,2.862-32.344,5.207-20.138,3.483-34.068,16.689-45,33.206-2.552,3.862-5.034,7.793-7.483,11.758-3.483,5.655-6.655,11.586-11.241,16.482a1.686,1.686,0,0,1,.828.793Z" transform="translate(57.209 -0.007)" fill="#1c1d1f" fill-rule="evenodd"></path><path id="Path_242" data-name="Path 242" d="M41.952,177.476a1.642,1.642,0,0,1-1.414-1.862c.69-2.931,1.69-5.793,2.414-8.724,2.172-8.414,4.448-17.207,6.241-25.62,1.207-5.517,1.69-11.207,3.138-16.689a1.676,1.676,0,0,1-2.138-1.345q-.414-5.586-1.241-11.069c-1.069-7.172-2.759-14.276-3.138-21.551-1.172-22.551,6.034-44.9,17.62-64.068A151.952,151.952,0,0,1,75.572,8.1c1.9-2.1,6.655-10.069,9.448-6.241a2.339,2.339,0,0,1,.241,1.517c-.414,2.793-1.379,5.483-1.965,8.241a151.25,151.25,0,0,0-3.724,20.655,108.484,108.484,0,0,0,1.379,23.172c1.1,7.31,2.655,14.62,2.586,22.069-.172,14.414-7.552,25.069-17.9,34.448-4.69,4.241-9.621,9.069-10.689,15.586-1.759,10.689-3.9,21.275-6.69,31.758-1.207,4.793-2.414,9.552-3.828,14.31-.621,1.517-.414,3.965-2.517,3.828h0Zm7.586-82.1c1.241,8.793,3.207,17.482,3.862,26.344,2.483-5.345,7.034-9.276,11.241-13.241A73.28,73.28,0,0,0,73.71,98.2c12.724-18.1,2.759-37.448,2.483-57.275-.586-11.758,2.241-23.344,5.1-34.655-8.069,9.517-14.172,20.069-20,30.965C52.228,55,47.262,75.478,49.538,95.374Z" transform="translate(99.189 2.012)" fill="#1c1d1f" fill-rule="evenodd"></path><path id="Path_243" data-name="Path 243" d="M63.829,270.235c-2.621-9.379-5.931-18.586-8-28.1-2.345-9.862-3.655-19.9-5.517-29.862a47.58,47.58,0,0,0-12.207-24.034c-4.965-5.621-10.862-10.483-15.241-16.62a73.451,73.451,0,0,1-7.552-14.034,50.613,50.613,0,0,1-4.448-19.207c-.276-12.207,2.345-24.344,5.724-36.034,6.31-20.31,17.655-38.517,28.241-56.827,5.448-9,9.931-18.551,15-27.758.724-1.241,1.552-3.276,3.31-2.655,2.034.586.862,5.276,1.034,6.931a91.524,91.524,0,0,0,1.862,19.655c2.1,10.586,5.655,20.793,8.552,31.172a254.408,254.408,0,0,1,6.621,31.172c3.069,22-5.414,43.516-15.207,62.758-5.31,10.069-9.138,18.862-8.724,30.517.483,20.517,6.345,40.344,10.689,60.275,3.138,1.828-1.586,5.241-2.828,1.9-2.345-8.69-4.1-17.551-6.069-26.344-3.69-17.138-8.276-38.1-2-55.034,3.414-8.379,7.965-16.172,11.552-24.413,6.1-14.31,11.069-29.655,9.689-45.379-.828-10-3.241-19.655-5.517-29.379C68,60.377,60.415,42.1,60.863,22.619,45.691,53.929,22.657,82.307,16.243,117.2c-2.724,13.276-3.69,27.413,2.448,39.9a58.264,58.264,0,0,0,10,16.482c6.552,7.276,14.241,13.689,19.207,22.275,7,12.379,6.9,27.068,10.1,40.62,1.9,9.758,4.9,19.207,7.827,28.689.414,1.379.793,2.793,1.207,4.172a1.644,1.644,0,0,1-3.172.862Z" transform="translate(26.554 36.665)" fill="#1c1d1f" fill-rule="evenodd"></path><path id="Path_244" data-name="Path 244" d="M79.726,270.965c-3.793-10.862-8.9-21.241-12.517-32.206-1.9-5.379-2.586-11.448-6.345-15.931-2.724-3.345-7.138-4.759-11-5.9-6.9-2.1-13.62-3.69-19.862-7.31-9.172-5.483-16.069-14.172-21.724-23.1A48.836,48.836,0,0,1,.521,165.588c-1.448-11.758.414-23.551,1.965-35.206,2.034-14.931,2.724-30.137,0-45.034C1.866,81.21.831,77.141.21,72.969a4.324,4.324,0,0,1,.172-2.724c1.448-2.517,4.241-.965,5.827.586,1.552,1.276,3.1,2.621,4.586,3.965,12.069,11,24.069,22.344,34.31,35.034,7.586,8.9,13.31,19.241,18.034,29.9,6.1,17.172,5.483,35.861,5.138,53.827-.034,8.862-.621,17.827,1,26.551a96.812,96.812,0,0,0,3.276,11.069c2.069,5.758,4.414,11.414,6.758,17.034a81.928,81.928,0,0,1,3.172,8.379,2.859,2.859,0,0,1-.138,2,1.674,1.674,0,0,1-2.241.655,1.691,1.691,0,0,1-.828-1.828c-1.345-4.414-3.345-8.621-5.069-12.9C69.485,233,64.589,221.1,64.9,208.449c-.31-20.724,1.965-41.861-3.138-62.171-1.793-7.034-5.483-13.241-8.9-19.517-4.965-9-11.758-16.724-18.517-24.379a356.529,356.529,0,0,0-30.9-29.517C5.383,83,7.348,93.175,7.59,103.52c.069,6.448-.448,12.862-.966,19.276-1.69,18.586-7.414,38.723,1.241,56.378,6.9,12.827,16.517,25.689,30.655,30.793,4.138,1.448,8.172,2.517,12.241,3.793,3.9,1.207,8.034,2.379,11,5.345,6.241,5.552,6.724,14.586,9.655,21.965,3.517,9.621,7.862,18.9,11.276,28.586a1.654,1.654,0,0,1-3.034,1.31Z" transform="translate(0.001 168.691)" fill="#1c1d1f" fill-rule="evenodd"></path><path id="Path_245" data-name="Path 245" d="M40.415,117.7c-6.69-2.759,9.827-9.345,12.138-10-1.931.517-3.862,1.034-5.793,1.586a1.641,1.641,0,0,1-1.069-3.1c1.276-.379,2.207-.621,3.345-.931,15.793-3.69,31.034-10.172,42.9-21.379,3.965-3.828,6.9-8.552,10.241-12.931,9.138-11.9,19.965-23.413,34.517-28.31,10.689-4.172,22.31-4.069,33.62-4.655,9.965-.483,19.931-1.172,29.827-2.483,4.828-.621,9.586-1.793,14.414-2.483A2.012,2.012,0,0,1,217,35.084c-.276,1.655-1.759,2.69-2.793,3.862-3.276,3.241-6.414,6.655-9.448,10.1-4.862,5.483-9.207,11.414-14.172,16.827a93.489,93.489,0,0,1-26.827,20.862,86.532,86.532,0,0,1-36.93,9.034c-7.276-.1-14.448-1.414-21.655-2a23.444,23.444,0,0,0-12.758,1.655c-7,3.345-13.069,7.793-20.517,10.1-10.1,3.241-21.241,4.655-29.862,11.172a1.623,1.623,0,0,1-1.655,1.034h0ZM102.965,75.36C94.1,89.325,79.621,98.532,64.345,104.221a65.65,65.65,0,0,0,18.379-7.31c4.724-2.759,9.586-5.759,15.1-6.483,5.517-.621,11.034.448,16.482,1a124.188,124.188,0,0,0,12.9,1.034,80.909,80.909,0,0,0,19.724-2.9c14.207-3.552,27-11.552,37.31-21.827,9.724-9.793,17.448-21.379,27.448-30.93-20,4.345-40.551,3.828-60.827,5.69-22.034,2.828-35.31,15.758-47.9,32.861Z" transform="translate(95.071 80.75)" fill="#1c1d1f" fill-rule="evenodd"></path><path id="Path_246" data-name="Path 246" d="M28.624,266.566a1.629,1.629,0,0,1-1.517-1.759c.552-3.965,1.207-7.931,2.034-11.862,3.276-14.414,8.827-28.206,14.448-41.861,6.448-15.62,14.689-32.62,30.827-40.068,6.552-2.9,14.207-2.759,21.138-2.655,12.483-.276,25.172-.345,36.861-5,19.551-8.345,29.034-28.931,36.792-47.447,3.345-7.69,7.138-15.276,12.827-21.551,7.31-8.414,16.138-14.931,22.827-23.724-17.448,2.965-34.31,8.517-51.585,12.345-13.724,3.276-27.448,7.172-38.482,16.276-15.724,12.379-29.62,26.827-40.034,43.861-5.793,9.965-10.034,20.448-14.172,31.1-4.379,9.724-10.586,18.551-15.1,28.206-4.759,10.241-8.862,20.448-12.724,31.034a165.128,165.128,0,0,0-4.69,16.827,1.642,1.642,0,0,1-3.276-.241c.207-1.621.759-3.207,1.1-4.793,3.517-14.345,9.448-27.931,15.31-41.448,4.621-10.414,11.138-19.862,16.034-30.1,3.241-8,6.207-16.1,10.172-23.793,7.345-15.172,18.138-28.413,30.206-40.068,7.655-7.276,15.655-14.414,24.862-19.724,9.379-5.276,19.862-7.793,30.172-10.414,8.552-2.1,17.138-4.138,25.62-6.414,6.31-1.724,12.552-3.241,18.9-4.621,3.034-.379,9.9-3.138,11.172.448,1.069,3.345-6.207,9.379-8.276,11.724-3.379,3.345-6.793,6.621-10.034,9.827a79.392,79.392,0,0,0-9.9,11.345A88.732,88.732,0,0,0,173,115.362c-9.655,23.172-21.344,48.1-48.344,53.792a142.519,142.519,0,0,1-22.62,2.31c-9.827.483-20.138-1.31-28.965,3.828C59.8,183.188,52.658,197.843,47,211.5c-3.276,7.758-6.345,15.517-9.138,23.448a140.168,140.168,0,0,0-7.379,29.517c0,1.034-.655,2.172-1.828,2.034Z" transform="translate(60.69 164.746)" fill="#1c1d1f" fill-rule="evenodd"></path><path id="Path_247" data-name="Path 247" d="M31.291,261.672a1.669,1.669,0,0,1-1.276-1.931c.621-3.379,1.31-6.758,2.069-10.1,4.172-19.138,11.689-30.31,29.034-39.689,13.689-8.31,27.31-17.724,37.206-30.482,12.552-16.069,22.62-40.482,25.206-60.689-6.69,7.241-14.862,13-23.241,18.1-8.034,5.069-17.034,8.862-24.551,14.689a79.977,79.977,0,0,0-24.344,31.241c-3.9,9.517-5.586,19.655-7.827,29.62a79.2,79.2,0,0,1-4.379,14.793c-2.9,6.931-6.9,13.689-8.138,21.138a1.654,1.654,0,0,1-2.759,1.31c-2.414-1.862,4.483-16,5.655-18.862,3.552-7,5.552-14.414,7.034-22.069,1.9-8.586,3.552-17.31,6.724-25.551a82.081,82.081,0,0,1,29.689-36.861c10.655-6.793,22.344-11.931,32.379-19.724a112.854,112.854,0,0,0,8.9-7.448c2-1.483,4.724-6.9,7.345-4.9,2.241,1.965-.345,11.517-.828,14.482a153.6,153.6,0,0,1-15.448,39.551c-8.345,15.207-21,27.62-35.379,37.068-6.965,5.034-14.655,8.862-21.62,13.862a44.74,44.74,0,0,0-10.655,12.241c-5.069,8.862-6.9,19.034-8.827,28.931a1.66,1.66,0,0,1-1.931,1.276Z" transform="translate(68.023 278.638)" fill="#1c1d1f" fill-rule="evenodd"></path><path id="Path_248" data-name="Path 248" d="M40.013,174.6a.838.838,0,0,1-.379-1.069.618.618,0,0,1,.172-.241c-1.414-9.069-6.586-16.9-10.62-24.965q-3.983-7.965-7.172-16.276c-3.241-7.9-5.1-16.276-6.655-24.62A115.383,115.383,0,0,0,9.944,90.253a.827.827,0,0,1,1.517-.655A127.828,127.828,0,0,1,16.7,105.873c1.414,6.931,2.69,13.9,5,20.586a192.254,192.254,0,0,0,8.862,20.931c2.9,5.586,6,11.069,8.414,16.9.552,1.517,4.517,11.552,1.034,10.276h0Z" transform="translate(24.198 218.13)" fill="#1c1d1f" fill-rule="evenodd"></path><path id="Path_249" data-name="Path 249" d="M25.154,160.981c-1.1-.379-.276-1.586-.207-2.379,1.483-8.9-.379-17.827-1.172-26.689-.828-8.034-1.655-16.069-2.241-24.138a87.134,87.134,0,0,1,1.448-24.31c1.31-7.379,3.483-14.551,4.586-21.9a157.707,157.707,0,0,0,1.241-26.448.828.828,0,0,1,1.655,0c.1,2.759.1,5.552.034,8.31-.207,6.827-.379,13.655-1.621,20.379-1.448,8.172-3.862,16.138-5.034,24.379a79.367,79.367,0,0,0-.69,19.379c.586,8.069,1.414,16.1,2.241,24.138.793,8.827,2.586,17.724,1.276,26.586-.276,1-.172,2.9-1.517,2.724Z" transform="translate(51.987 83.989)" fill="#1c1d1f" fill-rule="evenodd"></path><path id="Path_250" data-name="Path 250" d="M43.7,81.6c.552-2.724,2.241-5.138,3.034-7.793A83.944,83.944,0,0,0,49.7,63.357h0v.034c1.862-9.1,2.379-18.413,3.724-27.586A92.217,92.217,0,0,1,58.872,18.53a.82.82,0,0,1,1.517.621c-2.69,6.724-5.138,13.62-5.862,20.862C53.114,52.6,52.183,65.494,47.183,77.253,46.631,78.7,45.8,80.08,45.39,81.6a.828.828,0,0,1-1.655,0Z" transform="translate(106.992 44.133)" fill="#1c1d1f" fill-rule="evenodd"></path><path id="Path_251" data-name="Path 251" d="M52.84,73.13A.854.854,0,0,1,53.6,72.3c4.31-1.759,8.31-4.207,12.414-6.345,7.931-4.241,15.31-9.345,23.275-13.517,10.862-5.759,22.862-8.931,34.827-11.483a.825.825,0,0,1,.448,1.586c-15.241,3.034-30.172,7.862-43.275,16.379-6.069,3.793-12.276,7.414-18.62,10.758-2.034,1.1-4.069,2.172-6.069,3.138-1.034.379-3.379,2.172-3.724.345Z" transform="translate(129.369 100.186)" fill="#1c1d1f" fill-rule="evenodd"></path><path id="Path_252" data-name="Path 252" d="M33.327,156.655c-4.1-.069,13.62-23.1,15.069-25.241,9.724-12.758,22.965-22.275,36.758-30.172,7.069-4,14.551-7.172,21.482-11.414a134.446,134.446,0,0,0,12.793-9.138.811.811,0,0,1,1,1.276c-1.586,1.241-3.172,2.483-4.828,3.69a101.924,101.924,0,0,1-14.448,9.138c-18.551,9.1-37,19.655-50.172,35.93-5.931,7.931-12.1,15.9-16.62,24.724-.138.586-.276,1.276-1.034,1.172Z" transform="translate(80.09 197.106)" fill="#1c1d1f" fill-rule="evenodd"></path><path id="Path_253" data-name="Path 253" d="M30.164,191.148a.839.839,0,0,1,.828-.828H31.2c1.9-1.793,2.931-4.276,4.31-6.448A118.8,118.8,0,0,1,51.2,162.321c10.069-10.069,22.275-18.276,29.793-30.62.621-.965,1.276-1.9,1.9-2.862a.874.874,0,0,1,1.138-.31.8.8,0,0,1,.276,1.138c-.793,1.241-1.655,2.552-2.483,3.759-5.069,8-12.1,14.483-19.207,20.62,0,0,.069-.034.069-.069-3.276,2.9-6.552,5.724-9.655,8.793a109.3,109.3,0,0,0-14.241,18.758c-2.1,3.172-3.621,6.793-6.138,9.655-.552.828-2.379,1.31-2.517-.034Z" transform="translate(73.77 314.404)" fill="#1c1d1f" fill-rule="evenodd"></path><path id="Path_254" data-name="Path 254" d="M42.968,429.564c1.034-11.827-.862-23.586-1.69-35.379-2.414-28.241-8.034-56.068-11.655-84.137-3.172-25-3.793-50.172-4-75.344-.448-17.551-.759-35.137.724-52.654,1.276-13.207,3.724-26.275,5.552-39.448,1.965-13.965,3.31-28.1,7.586-41.585,2-6.655,4.414-13.138,6.552-19.724,1-2.517,1.276-5.655,2.965-7.724h0a.978.978,0,0,0-.276.379c-1.31,3.69-1.517,7.655-2.517,11.448-1.379,6.069-3,12.1-4.552,18.1-3.759,13.31-4.9,26.9-6.759,40.517-1.172,8.9-2.69,17.758-3.793,26.655-4.345,33.275-1.448,66.964-.586,100.378.966,15.345,2.586,30.655,4.655,45.861,2,13.965,4.69,27.827,6.69,41.792,2.69,23.344,7.965,47.827,1,70.826Z" transform="translate(61.829 180.089)" fill="#1c1d1f" fill-rule="evenodd"></path><path id="Path_255" data-name="Path 255" d="M46.542,187.032C42.025,178,34.75,170.826,30.232,161.86c-4.414-9.483-7.276-20.069-9.241-30.241-3.345-15.31-7.207-30.586-12-45.516A20.265,20.265,0,0,0,6.75,81.31a17.858,17.858,0,0,1,3,4.586c5.1,10.517,9.827,21.241,12.827,32.586,3.276,11.586,4.586,23.655,8.758,35C35.094,165.24,43.025,175.239,46.542,187.032Z" transform="translate(16.53 199.039)" fill="#1c1d1f" fill-rule="evenodd"></path><path id="Path_256" data-name="Path 256" d="M26.184,165.574c-1.1-10.069-4-19.724-4.862-29.793-1.034-16.517.862-33.068,3.862-49.275A180.432,180.432,0,0,0,27.46,58.921c.069-9.241.862-18.482,1.414-27.724.172-1.241,0-2.793.552-3.828-.379,4.241.828,8.621,1.138,12.9a129.984,129.984,0,0,1,.31,33.137c-.69,7.207-2.345,14.241-3.621,21.31a190.2,190.2,0,0,0-2.241,19.31c-.414,7.552-.931,15.241-.345,22.758.655,9.586,1.931,19.172,1.483,28.758Z" transform="translate(51.509 66.982)" fill="#1c1d1f" fill-rule="evenodd"></path><path id="Path_257" data-name="Path 257" d="M44.99,82.7a59.953,59.953,0,0,0,2.034-11.172c.207-7.552.172-15.172,1.138-22.689.828-7.448,4.414-14.1,7.414-20.827a46.171,46.171,0,0,0,3.138-13.931.386.386,0,0,1,.241-.276h0c-.276.1-.172.655-.172.931a45.838,45.838,0,0,1-1.724,19.207c-1.69,4.931-3.724,9.758-4.724,14.862-.9,5.483-1.621,10.965-2.552,16.448a53.359,53.359,0,0,1-4.759,17.413Z" transform="translate(110.15 33.76)" fill="#1c1d1f" fill-rule="evenodd"></path><path id="Path_258" data-name="Path 258" d="M51.394,78.626c6.862-3.724,12.862-8.9,19.413-13.207,7.621-5.138,15.758-8.793,23.931-12.62,9.034-4.138,18.172-8.379,28.068-9.931,6.483-1.172,13.069-1.345,19.551-2.621.31-.069.69-.138,1-.207-1.759.828-3.69,1.552-5.552,2.207-7.345,2.414-15.034,4.241-22.31,6.827a207.385,207.385,0,0,0-21.724,9.241c-14.276,6.414-27.758,15-42.413,20.31Z" transform="translate(125.745 98.001)" fill="#1c1d1f" fill-rule="evenodd"></path><path id="Path_259" data-name="Path 259" d="M32.53,163.983c4.483-8.241,9.172-16.414,14.379-24.241,7.724-10.862,17.069-20.758,28.655-27.551,5.759-3.517,11.552-6.207,17.413-9.1a155.554,155.554,0,0,0,23.931-14.379c6.586-4.655,14.1-7.9,21.379-11.069-6.448,4.448-13.034,8.793-19.069,13.793-11.345,9.724-25.206,15.517-38.137,22.724-16.9,9.069-28.586,24.551-40.241,39.275-2.862,3.448-5.655,7.069-8.31,10.586Z" transform="translate(79.645 190.054)" fill="#1c1d1f" fill-rule="evenodd"></path><path id="Path_260" data-name="Path 260" d="M56.19,160.64c4.138-2.276,8.207-4.448,11.689-7.517a84.838,84.838,0,0,0,13.345-15c3.483-5.483,5.931-11.483,8.552-17.413,4.483-10.448,7.655-21.689,15.241-30.448,5.034-6.483,11.621-11.483,17.9-16.724,2.138-1.586,4.034-3.862,6.586-4.759-1.724.862-3,2.724-4.379,4.138-2.552,2.931-5.069,5.9-7.621,8.827a111.769,111.769,0,0,0-7.69,9.9,75.472,75.472,0,0,0-8.31,15.62c-2.241,6.276-4.586,12.483-7.276,18.586-3.517,8.241-7.758,16.482-14.517,22.551a55.161,55.161,0,0,1-10.138,7.517c-4.1,2.31-8.862,3.517-13.345,4.69Z" transform="translate(137.57 168.363)" fill="#1c1d1f" fill-rule="evenodd"></path><path id="Path_261" data-name="Path 261" d="M28.89,216.529c7.138-14.862,12.31-31.172,23.758-43.448,6.379-7.034,13.9-12.965,20.138-20.138,6.586-7.483,11.31-16.655,19.31-22.827,2.483-1.965,5.1-3.724,7.69-5.517-2.172,2.345-4.552,4.69-6.621,7-5.517,6.034-8.931,13.414-13.965,19.758-7.138,9.586-16.689,16.965-24.758,25.724A84.824,84.824,0,0,0,43.166,193.53c-4.483,7.827-9.276,15.586-14.276,22.965Z" transform="translate(70.734 305.022)" fill="#1c1d1f" fill-rule="evenodd"></path><path id="Path_262" data-name="Path 262" d="M31.41,217.93c2.276-17.758,2.034-36.62,10.379-52.9,4.517-7.931,11.62-14.138,19.069-19.276,7.345-4.965,15.482-8.586,23.069-13.138,5.9-3.552,11.827-7.069,17.517-10.9,2.965-1.965,6.931-4.862,9.483-6.034-4.517,3.448-8.31,7.724-12.62,11.345-3.31,2.759-6.69,5.483-10.138,8.069-6.827,4.965-14.448,8.621-21.413,13.414C58.547,154.241,50.617,161.1,45.927,170.1c-2.69,5.69-4.172,11.827-5.862,17.862-2.759,10-5.517,20.1-8.621,29.931Z" transform="translate(76.903 283.208)" fill="#1c1d1f" fill-rule="evenodd"></path><path id="Path_263" data-name="Path 263" d="M23.82,168.4c0-4,.552-8,.931-12,.759-6.862,1.483-13.862,3.9-20.379,2.241-6.586,6.172-12.414,9.414-18.551,4.414-8.483,8.31-17.517,9.069-27.137.345-11.586-2.172-23.413-4.379-34.689-1.965-9.689-3.517-19.551-4.965-29.241,4.586,13.345,9.1,26.793,12.138,40.586,2,8.931,4,18.069,2.828,27.241-1.207,9.379-5.379,18-9.862,26.206-2.69,5-5.9,9.655-8.483,14.724A157.394,157.394,0,0,0,23.82,168.4Z" transform="translate(58.322 64.607)" fill="#1c1d1f" fill-rule="evenodd"></path><path id="Path_264" data-name="Path 264" d="M60.59,55.628c.172-1.724,1.9-2.759,2.931-4A146.129,146.129,0,0,1,80,37.9c13.689-10.379,29.068-18.241,44.93-24.758a1.646,1.646,0,0,1,1.276,3.034c-20.482,8.241-39.689,19.344-56.275,33.93a67.167,67.167,0,0,0-6.138,6,1.65,1.65,0,0,1-3.207-.517Z" transform="translate(148.342 31.828)" fill="#1c1d1f" fill-rule="evenodd"></path><path id="Path_265" data-name="Path 265" d="M62.62,57.069c1.483-2.9,4.586-5,6.724-7.483A80.479,80.479,0,0,1,87.585,34.38a115.616,115.616,0,0,1,21.034-10.345c3.586-1.448,7.069-3.069,10.655-4.448,6.345-2.448,12.9-4.241,19.207-6.69,1.965-.759,3.9-1.621,5.793-2.517-1.621,1.276-3.483,2.483-5.241,3.621a178.625,178.625,0,0,1-24.965,13c-5.793,2.31-11.965,4.586-17.482,7.414-8.965,4.793-17.793,9.862-25.793,16.034-2.655,2.207-6.1,3.965-8.172,6.655Z" transform="translate(153.312 25.387)" fill="#1c1d1f" fill-rule="evenodd"></path></g></g></svg>