<svg xmlns="http://www.w3.org/2000/svg" width="483.742" height="468.196" viewBox="0 0 483.742 468.196"><g id="Leaf" transform="translate(66.692) rotate(11)"><g id="Group_146" data-name="Group 146" transform="translate(0 0)"><path id="Path_109" data-name="Path 109" d="M35.99,397.808c3.8-14.063,10.265-27.448,14.832-41.24,4.432-12.888,8.366-26.092,12.933-38.889,6.557-19.4,14.38-38.392,21.479-57.655,6.6-19.083,14.109-37.894,19.987-57.2,10.22-29.031,17.636-58.514,25.821-88.133,4.477-15.51,9.225-30.93,13.521-46.441,4.251-17.907,9.406-36.131,13.476-53.9.543-2.668,1.04-5.381,1.492-8.049a2.212,2.212,0,0,1,2.442-1.854,2.186,2.186,0,0,1,1.854,2.442c-1.311,7.6-2.939,15.1-4.974,22.519C154.6,44.687,151.3,60.2,147.05,75.482c-9.134,30.342-17.5,60.911-25.866,91.525-3.934,15.058-9.587,29.529-14.109,44.361-9.858,29.348-20.756,58.288-31.835,87.184-7.235,19.128-13.385,38.572-19.761,57.927-4.341,12.662-9.541,25.052-13.928,37.578a27.774,27.774,0,0,0-1.221,3.889,2.162,2.162,0,0,1-2.171,2.125A2.2,2.2,0,0,1,35.99,397.9Z" transform="translate(126.794 15.53)" fill="#ffb7a5" fill-rule="evenodd"></path><path id="Path_110" data-name="Path 110" d="M37.686,405.225c-3.256-1.447-.859-5.652,2.08-3.8,6.421.814,9.225-7.28,11.079-12.164,2.487-7.371,4.386-14.923,6.6-22.384,4.658-15.284,8.863-30.659,14.425-45.627,16.234-41.467,27.991-84.471,40.788-127.068,17-49.063,27.358-100.071,40.562-150.175,3.211-12.888,6.693-25.73,8.275-38.934a2.186,2.186,0,0,1,2.442-1.854,2.212,2.212,0,0,1,1.854,2.442,183.149,183.149,0,0,1-4.16,22.112c-10.807,42.959-20.982,86.053-32.739,128.741-3.03,10.988-6.2,22.022-10.039,32.739-5.336,15.375-9.361,31.156-14.018,46.757C97.422,259.889,90.5,283.9,81.64,307.234c-8.863,22.519-15.782,45.717-22.384,68.96-3.075,9.813-7.19,33.463-21.57,28.986Z" transform="translate(127.268 11.233)" fill="#ffb7a5" fill-rule="evenodd"></path><path id="Path_111" data-name="Path 111" d="M107.878,349.366c-2.171.136-4.793-1.537-3.663-3.934,2.08-2.985,5.562-4.748,8.185-7.19a70.949,70.949,0,0,0,9.5-9.994,47.25,47.25,0,0,1-17.817-.362,92.392,92.392,0,0,1-16.686-4.341c-9.406-3.753-18-9.27-27-13.928-2.125-1.311-6.783-2.623-5.065-5.879.814-1.447,2.8-1.537,4.3-1.764,1.447-.226,2.894-.407,4.025-.633,7.552-1.628,15.782-3.8,20.892-9.994-3.663-.95-7.461-1.085-11.124-2.035-11.757-3.211-19.083-13.7-27.494-21.66-2.985-2.623-6.466-4.522-9.541-7.054a70.652,70.652,0,0,1-8.5-9.134c-7.733-9.9-15.239-20.168-20.53-31.654C4.777,214.43,2.019,209.094.165,203.4a2.851,2.851,0,0,1,4.16-3.482c4.793,2.668,9.315,5.969,14.244,8.275,9.134,4.477,18.676,7.235,28.488,9.632,4.612,1.085,10.491.271,12.978-4.205,1.311-3.03,0-6.15-1.4-8.863-4.974-8.094-13.792-13.114-18.947-21.118a4.4,4.4,0,0,1-.271-4.748c1.583-2.668,5.336-1.673,7.913-1.4,2.849.362,6.286,1.809,8.818-.045,5.969-4.839,5.426-20.123,5.788-27.494.045-3.708-.543-7.416-.362-11.124a3.249,3.249,0,0,1,5.019-2.939c3.256,2.306,5.155,5.969,7.416,9.134a84.818,84.818,0,0,0,5.652,7.6c1.9,2.623,2.623-.271,3.075-2.035,1.4-6.466-.407-13.023-1.357-19.445-1.4-8.23-1.764-16.6-3.12-24.826-1.266-8.185-2.668-16.324-2.894-24.6,0-1.854-.045-3.889,1.13-5.426,2.8-2.985,6.014,1.13,7.371,3.572,4.477,7.19,8.456,14.7,12.481,22.158,5.11,9.587,10.174,19.49,17.952,27.132,7.28,6.331,13.159,2.532,17.907-4.341,1.176-1.492,1.854-3.979,3.979-4.3,4.07-.181,3.663,7.552,4.16,10.355.317,3.03.588,6.1,1.04,9.134a109.567,109.567,0,0,0,3.437,16.55c2.171,8.094,6.919,2.894,9.813-1.4,1.628-2.125,2.532-4.974,4.793-6.512,2.487-1.537,4.522.588,4.974,3.075.814,3.03.9,6.24,1.809,9.27a2.9,2.9,0,0,0,1.537,1.944c7.823-2.939,10.084-22.7,11.079-30.342,1.944-16.189.588-32.784,7.687-47.843,1.357-3.618,4.974-9.994,9.18-5.652,1.809,2.578,2.4,5.788,3.8,8.592,9.27,13.837,22.791-21.389,27-27.448,3.256-5.381,11.938-19.218,16.279-7.19,2.532,9.767,12.345-4.839,14.651-8.23a183.065,183.065,0,0,1,15.556-20.8c5.336-6.15,10.762-12.209,15.827-18.631,1.357-1.628,2.487-3.482,4.16-4.839a2.346,2.346,0,0,1,3.12.136c1.04.995.588,2.487.317,3.663-.95,3.889-2.08,8.275-2.849,12.074-2.713,13.2-1.537,26.951.814,40.11,1.131,5.336,2.985,12.255,9.27,13.2,11.622,2.4,17.138-9.18,21.3-6.2,2.216,2.035-.09,6.512-.633,9-.9,3.03-1.9,6.014-2.758,9.044-3.165,12.3-6.6,28.081-2.894,40.472a5.991,5.991,0,0,0,3.663,3.3c4.612,1.673,9.406.045,13.837-1.176,9.044-1.176,2.125,12.119,0,15.827-3.889,7.145-8.23,14.063-12.164,21.163-6.783,11.712-12.39,24.373-14.335,37.8a10.29,10.29,0,0,0,.678,4.884,10.986,10.986,0,0,0,2.713,2.487c7.235,4.7,22.519-9.9,29.122-13.566,3.391-2.487,8.411-2.4,8.049,2.939a27.3,27.3,0,0,1-1.221,5.381c-.995,3.437-2.4,6.828-2.713,10.446a5.672,5.672,0,0,0,.452,2.487c1.854,1.628,4.115.769,6.24.407,6.557-1.9,12.616-5.245,18.495-8.637,4.251-2.171,9.768-7.28,14.47-3.482,3.753,3.256,1.537,9.27,5.11,12.662,5.969,5.743,15.058,6.014,22.881,5.607,2.849-.226,5.652-.633,8.456-1.085a2.178,2.178,0,0,1,2.442,1.854,2.2,2.2,0,0,1-1.854,2.442,89.016,89.016,0,0,1-10.943,1.221c-9.044.271-20.123-.995-25.64-9.089-1.673-2.4-1.854-5.336-2.306-8.14-.5-3.12-2.125-2.894-4.477-1.673-3.3,1.718-6.421,3.8-9.722,5.562-7.054,3.708-26.725,14.787-27.9.362.136-5.7,2.985-10.853,3.979-16.415-9.089,5.065-16.731,13.385-27.132,15.827a12.062,12.062,0,0,1-11.169-4.07c-3.482-4.07-2.261-9.994-1.13-14.742,3.437-16.234,11.893-30.614,20.258-44.722,3.391-6.331,7.959-12.3,9.587-19.309-6.466,2.171-15.375,3.437-20.213-2.532-3.03-4.025-3.03-9.406-3.256-14.244-.271-14.606,3.572-28.85,8.049-42.6-6.24,4.839-15.556,7.28-22.7,2.985-6.512-4.205-7.6-12.662-8.818-19.716-2.125-14.109-2.487-28.624,1.266-42.461-8.5,10.627-18.4,20.53-26,31.79-4.929,6.783-9.767,17.229-18.766,18.947-4.839.724-6.421-4.612-8.049-8.049-9.9,9-13.069,23.062-21.027,33.6-4.793,6.828-13.023,13.249-20.078,5.291-1.99-2.758-2.623-6.2-4.115-9.18-5.155,8.682-7.326,19.264-7.913,29.122-.543,10.4-1.176,20.846-2.985,31.111-1.492,7.235-3.03,14.923-7.6,20.892a9.4,9.4,0,0,1-6.557,3.8,6.515,6.515,0,0,1-4.522-2.894c-1.809-3.165-1.854-6.964-2.578-10.446-3.211,5.11-8,13.475-15.194,10.536-7.19-3.3-8.547-29.348-9.677-37.125-14.787,20.8-28.262,2.939-37.08-12.164-6.376-11.215-11.938-22.926-18.9-33.824.452,13.656,3.753,26.906,4.748,40.517.724,9.27,4.07,18.45,2.849,27.765-.407,3.572-1.99,8.908-6.512,8.411-5.245-.317-11.215-13.2-14.877-17.048.543,10.084,1.492,32.377-6.331,39.386-4.567,4.341-10.717,1.266-16.1,1.085,6.647,10.355,21.977,16.912,21.344,30.795-.271,4.612-4.16,7.913-8.275,9.406-6.059,2.261-12.571-.136-18.495-1.764A106.233,106.233,0,0,1,5.591,205.7a159.8,159.8,0,0,0,21.253,37.352c3.663,4.929,7.461,9.9,12.028,14.063,3.934,3.165,8.411,5.607,11.938,9.27,5.245,5.517,10.265,11.3,16.641,15.556,4.025,2.849,8.818,3.8,13.611,4.432,2.351.5,5.019.452,6.873,2.171,3.437,3.934-2.035,7.913-4.974,10.129-5.969,4.251-13.34,5.969-20.394,7.326,12.481,6.512,24.554,14.742,38.753,17.093,4.658.9,9.406,1.944,14.2,1.673,3.075-.136,6.331-1.447,9.225,0,4.025,2.623.588,6.6-1.673,9.134a83.986,83.986,0,0,1-12.119,11.26c15.51-.995,26.454-14.063,41.014-17.862,10.581-2.8,21.072,2.125,30.976,5.336a42.478,42.478,0,0,1,6.783,2.894c1.176.678,2.4,1.673,2.532,3.075a2.138,2.138,0,0,1-4.16.9h0c-3.12-1.854-6.738-2.849-10.084-4.115-8.637-2.849-18-6.647-27.041-3.391-14.47,5.517-26.589,18.269-43,17.5Z" transform="translate(0.008 -0.014)" fill="#ffb7a5" fill-rule="evenodd"></path><path id="Path_112" data-name="Path 112" d="M116.993,222.534c-16.279-4.025-30.976-13.566-42.868-25.233-9.27-8.863-18.178-18.811-29.619-24.78a2.159,2.159,0,0,1,1.673-3.979,46.4,46.4,0,0,1,5.833,3.346c11.531,8,20.8,18.676,31.2,27.991,10.988,8.727,25.64,18.088,39.884,19.038-3.934-3.934-12.526-11.26-6.059-16.505,7.823-4.386,30.342,0,40.11.5,9.587.814,19.128,1.9,28.715,2.849,6.15.543,12.616.181,18.224-2.487-11.531-4.432-24.735-8.592-31.156-20.078-4.793-9.948,1.628-22.429,11.4-26.454,6.512-2.894,13.611-3.753,20.665-4.251,4.567-.407,9.361-.407,13.611-2.261-8.366-7.733-15.691-15.691-6.1-26.137,5.7-5.7,14.289-5.788,21.163-9.18-9.541-7.28-9.9-15.827-4.658-26,6.376-13.023,18.088-22.293,29.122-31.2,3.527-2.758,7.326-5.245,10.988-7.823,1.221-1.04,3.075-2.216,4.341-.588a2.162,2.162,0,0,1-.407,3.03c-3.527,2.578-7.19,4.974-10.717,7.6-3.753,2.8-7.371,5.833-10.943,8.908-8.32,7.235-16.505,15.42-20.259,26-2.939,6.873-.678,12.345,5.11,16.686,4.115,3.346,1.492,6.873-2.668,8.23-5.472,2.125-11.531,2.8-16.505,6.1-9.225,7.461-3.527,13.882,3.3,20.123,3.572,2.758,3.753,6.919-.9,8.592-8.094,2.849-16.867,1.718-25.1,3.572-8.954,1.673-16.189,5.517-18.631,14.923-1.944,9.27,6.738,16.053,14.063,19.806,4.16,1.99,8.456,3.708,12.752,5.336,2.532,1.13,7.235,1.854,6.557,5.562-1.04,3.392-5.2,4.3-8.185,5.291-11.712,3.165-23.6-.271-35.407-.95-14.7-.9-29.8-4.07-44.451-2.713-4.522.724-.859,4.205.633,6.24,1.447,1.628,3.075,3.12,4.612,4.7,1.04,1.04,2.261,2.4,1.944,3.979-1.537,4.612-7.823,2.8-11.441,2.306Z" transform="translate(152.283 170.726)" fill="#ffb7a5" fill-rule="evenodd"></path><path id="Path_113" data-name="Path 113" d="M101.324,173.507c-1.628-2.578-2.171-5.833-3.437-8.637a197.012,197.012,0,0,0-11.4-23.469c-8.14-14.606-16.37-29.3-26.5-42.6C47.377,82.073,33.132,65.975,26.078,45.852a2.159,2.159,0,0,1,3.979-1.673c7.552,21.434,23.2,37.939,36.311,56.027,10.808,14.968,19.671,31.247,28.4,47.526a155.951,155.951,0,0,1,9.813,22.791,2.193,2.193,0,0,1-3.211,2.985Z" transform="translate(91.305 150.929)" fill="#ffb7a5" fill-rule="evenodd"></path><path id="Path_114" data-name="Path 114" d="M66.681,122.357a89.869,89.869,0,0,0-8.411-39.884c-2.985-6.014-6.964-11.576-9.722-17.726-2.125-4.612-3.3-9.541-4.522-14.425-.678-2.8-1.221-5.607-1.718-8.411a2.168,2.168,0,1,1,4.3-.588A125.166,125.166,0,0,0,51.216,60c2.171,5.788,5.562,10.943,8.592,16.279,6.286,10.853,9.587,23.243,10.808,35.633.317,3.437.362,6.919.362,10.4a2.171,2.171,0,0,1-4.341,0Z" transform="translate(148.964 138.862)" fill="#ffb7a5" fill-rule="evenodd"></path><path id="Path_115" data-name="Path 115" d="M64.362,90.065A82.189,82.189,0,0,0,59.7,62.029c-4.341-10.762-8.773-21.751-9.225-33.508a2.148,2.148,0,0,1,4.3,0A79.667,79.667,0,0,0,58.62,47.468c3.211,8.32,6.828,16.505,8.411,25.323a85.286,85.286,0,0,1,1.583,17.274,2.171,2.171,0,0,1-4.341,0Z" transform="translate(177.827 92.924)" fill="#ffb7a5" fill-rule="evenodd"></path><path id="Path_116" data-name="Path 116" d="M54.45,91.126c.724-4.3,3.211-8.185,5.019-12.119,2.171-4.3,4.386-8.547,6.693-12.752,3.346-6.014,6.6-12.119,10.31-17.907A142.465,142.465,0,0,1,94.7,26.552c1.99-1.944,5.019,1.04,3.03,3.03a137.271,137.271,0,0,0-17.455,20.8c-5.924,9.541-11.3,19.49-16.415,29.438-1.809,3.753-3.844,7.461-5.11,11.441a2.151,2.151,0,0,1-4.3-.136Z" transform="translate(191.809 91.23)" fill="#ffb7a5" fill-rule="evenodd"></path><path id="Path_117" data-name="Path 117" d="M53.26,83.586c-4.884-1.673,3.663-11.4,5.381-13.656C68.318,58.037,82.11,50.8,93.867,41.351a2.144,2.144,0,0,1,2.623,3.391c-10.762,8.727-23.2,15.375-32.6,25.685a51.461,51.461,0,0,0-7.326,10.039,7.146,7.146,0,0,0-.633,1.628,2.167,2.167,0,0,1-2.668,1.492Z" transform="translate(182.373 143.944)" fill="#ffb7a5" fill-rule="evenodd"></path><path id="Path_118" data-name="Path 118" d="M47.454,117.974c-3.03-.724-1.718-3.889-.181-5.517,3.618-4.7,8.094-8.682,12.526-12.616,19.535-16.867,32.649-19.128,56.344-25.956,8.863-2.668,17.681-5.472,26.725-7.552,6.2-1.4,12.39-2.758,18.54-4.567a166.417,166.417,0,0,0,17.184-6.331,2.138,2.138,0,1,1,1.673,3.934,157.67,157.67,0,0,1-26.318,8.773C140.2,71.036,126.77,75.06,113.339,79.13c-10.22,3.03-20.8,5.426-30.433,10.039a114.989,114.989,0,0,0-29.981,23.153,36.576,36.576,0,0,0-3.03,3.844,2.155,2.155,0,0,1-2.4,1.718Z" transform="translate(160.73 194.614)" fill="#ffb7a5" fill-rule="evenodd"></path><path id="Path_119" data-name="Path 119" d="M138.671,108.094c-13.656-2.125-27.041-7.19-38.075-15.6-10.491-8.23-21.57-15.6-34.548-18.9-5.2-1.085-10.536-2.8-15.6-.859-1.176,3.572-5.7,1.085-3.844-2.08C51.849,64,68.49,69.612,75.227,72.1c8.727,3.346,16.641,8.411,24.057,14.018a89.694,89.694,0,0,0,13.882,9.315,83.494,83.494,0,0,0,22.339,7.778c2.035.633,5.833.045,5.607,3.075a2.186,2.186,0,0,1-2.442,1.854Z" transform="translate(162.621 237.731)" fill="#ffb7a5" fill-rule="evenodd"></path><path id="Path_120" data-name="Path 120" d="M108.327,101c-2.623-.588-4.341-3.075-6.421-4.612-2.623-2.261-5.245-4.522-8-6.6-5.833-4.477-12.526-7.552-19.354-10.265-16.777-6.828-35.859-8.592-50.737-19.58-1.357-1.176-3.527-1.854-4.115-3.663a2.165,2.165,0,0,1,3.256-2.261,81.508,81.508,0,0,0,13.2,8.23c9.451,4.251,19.716,6.331,29.529,9.632C74.367,74.637,83,77.848,90.827,82.506c6.6,3.889,12.119,9.225,18,14.063,2.939.317,2.351,4.612-.543,4.341Z" transform="translate(69.198 188.933)" fill="#ffb7a5" fill-rule="evenodd"></path><path id="Path_121" data-name="Path 121" d="M50.008,108.871c-3.8-5.245-4.658-12.164-5.7-18.45-2.171-12.164-2.713-24.871-8-36.221a2.144,2.144,0,0,1,3.844-1.9c6.15,13.2,6.466,28.036,9.134,42.145a44.9,44.9,0,0,0,3.527,11.215,2.165,2.165,0,0,1-2.849,3.256Z" transform="translate(127.11 179.932)" fill="#ffb7a5" fill-rule="evenodd"></path><path id="Path_122" data-name="Path 122" d="M71.115,85.683C64.332,77,53.706,73.157,44.436,67.821A70.05,70.05,0,0,1,22.142,46.7a1.081,1.081,0,0,1,1.718-1.311c5.652,8.14,12.526,15.194,21.072,20.213C51.9,69.72,59.494,72.75,65.915,77.679a36.74,36.74,0,0,1,6.6,6.376,1.107,1.107,0,0,1,.136,1.447,1.038,1.038,0,0,1-1.492.181Z" transform="translate(77.243 158.307)" fill="#ffb7a5" fill-rule="evenodd"></path><path id="Path_123" data-name="Path 123" d="M39.723,63.889a65.85,65.85,0,0,1-13.566-2.532c-2.216-.678-4.386-1.4-6.512-2.261-.9-.362-2.623-.859-1.944-2.171a1.1,1.1,0,0,1,1.447-.407A62.985,62.985,0,0,0,44.7,61.854c5.336-.09,10.627-.678,15.963-1.221a1.107,1.107,0,0,1,1.221.9,1.049,1.049,0,0,1-.9,1.221c-7.054.678-14.109,1.537-21.208,1.085Z" transform="translate(61.833 198.551)" fill="#ffb7a5" fill-rule="evenodd"></path><path id="Path_124" data-name="Path 124" d="M55.863,87.409C51.206,82.8,48.9,76.24,45.282,70.949,39,61.181,28.641,55.438,18.421,50.6a1.075,1.075,0,0,1,1.085-1.854C27.963,52.771,36.464,57.292,42.84,64.3,47.859,69.592,50.708,76.42,54.6,82.48a20.335,20.335,0,0,0,2.8,3.391,1.087,1.087,0,0,1-1.537,1.537Z" transform="translate(63.102 171.052)" fill="#ffb7a5" fill-rule="evenodd"></path><path id="Path_125" data-name="Path 125" d="M43.138,101.439a79.915,79.915,0,0,1-8.275-25.82c-1.537-11.034-1.04-22.293-3.889-33.1a1.082,1.082,0,0,1,2.08-.588c3.482,13.114,2.08,26.951,5.155,40.11A62.942,62.942,0,0,0,42.55,95.063c.769,1.764,1.537,3.527,2.442,5.245a1.1,1.1,0,0,1-.362,1.492,1.074,1.074,0,0,1-1.492-.407Z" transform="translate(108.974 144.948)" fill="#ffb7a5" fill-rule="evenodd"></path><path id="Path_126" data-name="Path 126" d="M38.85,93.381c.814-5.7,2.939-11.215,3.889-16.912A44.188,44.188,0,0,0,42.6,58.245a72.911,72.911,0,0,0-2.035-7.461c-.317-.769-.814-1.944.226-2.4a1.046,1.046,0,0,1,1.4.588,60.889,60.889,0,0,1,2.171,7.28,47.048,47.048,0,0,1,.995,17.771C44.5,80.584,42.2,86.869,41.021,93.336a1.086,1.086,0,0,1-2.171,0Z" transform="translate(136.866 170.054)" fill="#ffb7a5" fill-rule="evenodd"></path><path id="Path_127" data-name="Path 127" d="M85.887,88.466c-14.38-17.636-26.951-21.705-48.973-22.2-1.583-.317-8.727.226-8.049-2.08a1.105,1.105,0,0,1,1.311-.769c16.46,1.9,30.523.136,44.632,11.215a69.147,69.147,0,0,1,10.174,9.406c.723,1.176,3.844,3.346,2.4,4.612a1.073,1.073,0,0,1-1.492-.181Z" transform="translate(101.541 223.173)" fill="#ffb7a5" fill-rule="evenodd"></path><path id="Path_128" data-name="Path 128" d="M48.109,98.154A161.174,161.174,0,0,1,49.1,75.273C50.6,63.29,51.455,50.628,46.616,39.278c-.271-1.311-2.487-3.708-.814-4.567,1.718-.678,2.351,3.256,3.075,4.341C54.711,52.889,52,68.038,50.641,82.463c-.407,5.245-.407,10.446-.317,15.691a1.086,1.086,0,0,1-2.171,0Z" transform="translate(159.171 121.915)" fill="#ffb7a5" fill-rule="evenodd"></path><path id="Path_129" data-name="Path 129" d="M65.648,60.322C62.437,56.931,59,53.63,56.423,49.65a58.855,58.855,0,0,1-5.879-12.842c-1.13-3.572-2.713-7.145-2.985-10.853a1.1,1.1,0,0,1,1.085-1.085c1.13,0,1.085,1.176,1.176,1.99,2.487,9.18,5.426,18.857,11.893,26.047,1.764,2.035,3.663,3.934,5.517,5.879a1.087,1.087,0,0,1-1.537,1.537Z" transform="translate(167.543 87.531)" fill="#ffb7a5" fill-rule="evenodd"></path><path id="Path_130" data-name="Path 130" d="M61.91,78.327a1.685,1.685,0,0,1-.588-1.673c.09-1.357.226-2.668.407-3.979a65.5,65.5,0,0,0,0-18.088c-1.99-12.164-7.461-23.921-5.743-36.492a1.049,1.049,0,0,1,1.221-.9c1.13.181.95,1.4.814,2.216-.9,9.044,1.718,17.771,4.025,26.408a66.85,66.85,0,0,1,2.442,20.3c-.09,3.708-.859,7.326-.995,10.988a1.1,1.1,0,0,1-1.537,1.311Z" transform="translate(196.061 60.437)" fill="#ffb7a5" fill-rule="evenodd"></path><path id="Path_131" data-name="Path 131" d="M61.06,53.766a2.686,2.686,0,0,1,.045-.5,7.343,7.343,0,0,1,.181-.859c.09-.543.181-1.04.271-1.583.181-1.13.407-2.306.588-3.437.362-2.351.724-4.7,1.04-7.009.181-1.13.362-2.306.543-3.437q.339-1.764.814-3.527c.317-1.13.633-2.216.95-3.346A28.8,28.8,0,0,1,66.8,26.815c.678-1.4,1.4-2.8,2.216-4.16a1.094,1.094,0,0,1,1.9,1.085c-.5.859-.995,1.764-1.4,2.532-.317.678-.678,1.357-.995,2.035-.317.633-.543,1.311-.814,1.99-.317.95-.588,1.9-.859,2.849s-.5,1.9-.724,2.849c-.9,4.522-1.4,9.089-2.171,13.566l-.407,2.306c-.045.362-.136.724-.181,1.085-.045.226-.09.452-.136.724a1.062,1.062,0,0,1-1.085,1.04,1.1,1.1,0,0,1-1.085-1.085Z" transform="translate(215.09 77.853)" fill="#ffb7a5" fill-rule="evenodd"></path><path id="Path_132" data-name="Path 132" d="M54.75,79.206a1.082,1.082,0,0,1-.588-1.4A23.749,23.749,0,0,1,55.79,74.82c.633-1.04,1.311-2.08,1.944-3.075C59.046,69.755,60.4,67.856,61.85,66s3.03-3.618,4.612-5.381c.769-.9,1.583-1.764,2.4-2.623.769-.814,1.583-1.583,2.4-2.306.9-.769,1.809-1.583,2.713-2.306.95-.769,1.9-1.447,2.849-2.171.95-.678,1.944-1.311,2.939-1.944s2.035-1.266,3.075-1.9c1.221-.724,2.442-1.492,3.663-2.216,1.176-.724,2.306-1.447,3.482-2.171,1.809-1.266,3.618-2.532,5.381-3.889,1.809-1.4,3.572-2.849,5.155-4.251,1.311-1.176,2.668-2.4,3.934-3.618a1.087,1.087,0,1,1,1.537,1.537A100.28,100.28,0,0,1,94.86,42.171c-.995.724-1.944,1.4-2.939,2.125-1.04.678-2.035,1.357-3.075,1.99-1.99,1.266-4.025,2.442-6.014,3.663-1.221.724-2.4,1.492-3.437,2.216-1.176.769-2.351,1.583-3.437,2.442-1.13.9-2.216,1.809-3.3,2.758-1.176,1.085-2.261,2.171-3.346,3.346-1.131,1.221-2.216,2.442-3.3,3.663h0c-.543.633-1.04,1.266-1.583,1.9-.588.769-1.221,1.492-1.809,2.306-1.04,1.357-1.99,2.8-2.894,4.115-.588.9-1.176,1.809-1.764,2.758-.543.859-1.04,1.809-1.537,2.713a2.422,2.422,0,0,0-.226.5,1.129,1.129,0,0,1-.995.678.672.672,0,0,1-.407-.09Z" transform="translate(190.514 108.847)" fill="#ffb7a5" fill-rule="evenodd"></path><path id="Path_133" data-name="Path 133" d="M62.5,41.761h-.995a1.085,1.085,0,1,1,0-2.171h1.311c.543,0,1.131,0,1.718-.045,2.035-.181,4.025-.588,6.014-.95h0A97.239,97.239,0,0,0,80,36.018c1.447-.543,2.894-1.13,4.3-1.809l1.221-.678a1.094,1.094,0,0,1,1.085,1.9,33.608,33.608,0,0,1-6.783,2.984c-2.216.724-4.477,1.311-6.738,1.9-1.04.271-2.125.452-3.165.678-.995.181-1.944.362-2.939.543-.995.136-1.99.271-2.984.317H62.5Z" transform="translate(212.836 117.487)" fill="#ffb7a5" fill-rule="evenodd"></path><path id="Path_134" data-name="Path 134" d="M55.708,103.905a1.12,1.12,0,0,1,0-1.537c.226-.226.5-.452.724-.678l1.085-1.085c.724-.724,1.4-1.492,2.035-2.216.136-.181.271-.317.407-.5.09-.09.181-.226.271-.317a107.762,107.762,0,0,0,7.959-10.717c.317-.5.678-.95.9-1.357,2.623-3.934,5.336-7.823,8.275-11.531a81.959,81.959,0,0,1,9.587-10.22c1.628-1.447,3.3-2.894,5.019-4.251,1.673-1.311,3.391-2.623,5.155-3.8a.14.14,0,0,0,.09-.045h0a.14.14,0,0,0,.09-.045h0a3.084,3.084,0,0,1,.317-.226c.136-.09.317-.226.317-.226.136-.09.226-.181.362-.271,1.447-.95,2.894-1.854,4.386-2.668,1.628-.9,3.346-1.673,5.065-2.442a1.075,1.075,0,0,1,.814,1.99c-1.04.452-2.125.9-3.075,1.357a62.2,62.2,0,0,0-6.059,3.527h0a.158.158,0,0,1-.09.045h0a3.086,3.086,0,0,1-.317.226l-.407.271a2.769,2.769,0,0,1-.271.181H98.3a.14.14,0,0,0-.09.045c-1.492,1.04-2.985,2.125-4.432,3.256-.814.678-1.673,1.311-2.487,1.99-.678.543-1.357,1.13-2.035,1.718-1.311,1.176-2.623,2.4-3.889,3.618-1.266,1.266-2.487,2.578-3.663,3.889a.14.14,0,0,1-.045.09h0a123.894,123.894,0,0,0-8.411,10.988c-.814,1.176-1.628,2.351-2.4,3.527-.317.5-.678.95-.9,1.357a100.48,100.48,0,0,1-8.185,10.988c-.136.181-.271.317-.407.5-.09.09-.181.226-.271.317V99.7c-.678.724-1.357,1.492-2.035,2.171-.362.407-.769.769-1.131,1.13-.271.271-.543.5-.769.724a.992.992,0,0,1-.769.317,1.059,1.059,0,0,1-.769-.317Z" transform="translate(195.164 174.949)" fill="#ffb7a5" fill-rule="evenodd"></path><path id="Path_135" data-name="Path 135" d="M60.47,84.157a1.1,1.1,0,0,1-.588-1.4c.814-1.718,1.628-3.437,2.351-5.155.814-1.854,1.492-3.708,2.171-5.607h0a.166.166,0,0,1,.045-.136c0-.09.09-.226.09-.271V71.5h0v-.181l.136-.181V71h0v-.271c.136-.452.317-.9.452-1.311.181-.5.362-.995.5-1.357.769-2.216,1.583-4.386,2.532-6.557.452-1.085.9-2.125,1.4-3.165.271-.543.543-1.13.814-1.673s.588-1.04.859-1.537c.362-.588.769-1.131,1.176-1.718.362-.543.769-1.085,1.176-1.583.9-1.176,1.9-2.351,2.894-3.437a1.087,1.087,0,0,1,1.537,1.537c-.317.362-.633.678-.9.95-1.221,1.4-2.306,2.849-3.391,4.341a14.851,14.851,0,0,0-.9,1.4c-.317.5-.588,1.04-.859,1.537-.814,1.628-1.537,3.3-2.261,5.019-.362.9-.724,1.764-1.085,2.668-.362.95-.678,1.9-.995,2.758-.181.5-.362.995-.5,1.447v.09c-.181.5-.316.95-.5,1.4v.136h0V71.9h0a.456.456,0,0,1-.045.136c0,.09-.045.136-.09.226a.272.272,0,0,1-.045.181h0v.136h0v.136c-.678,1.9-1.4,3.8-2.171,5.652-.723,1.764-1.537,3.482-2.4,5.2a1.129,1.129,0,0,1-.995.678.672.672,0,0,1-.407-.09Z" transform="translate(210.66 169.284)" fill="#ffb7a5" fill-rule="evenodd"></path><path id="Path_136" data-name="Path 136" d="M66.785,79.077c0-.633.5-.995.995-1.311.452-.271.859-.588,1.311-.859.95-.588,1.9-1.221,2.8-1.809a83.3,83.3,0,0,0,7.959-6.014c.859-.769,1.718-1.537,2.532-2.351s1.628-1.628,2.4-2.442c1.628-1.764,3.256-3.482,4.929-5.246,1.085-1.13,2.216-2.171,3.346-3.211,1.266-1.131,2.532-2.216,3.889-3.211A1.063,1.063,0,0,1,98.258,54.3c-1.176.9-2.306,1.854-3.437,2.849-.9.814-1.764,1.628-2.623,2.442-.814.814-1.628,1.628-2.4,2.487-1.583,1.673-3.12,3.391-4.748,5.019-.814.814-1.628,1.628-2.487,2.4-.9.814-1.764,1.628-2.713,2.351-1.809,1.447-3.663,2.894-5.607,4.205-.9.633-1.854,1.266-2.758,1.854-.859.588-1.764,1.13-2.532,1.628-.09.045-.181.136-.271.181a.993.993,0,0,1-.859.407,1.1,1.1,0,0,1-1.085-1.085Z" transform="translate(235.094 184.493)" fill="#ffb7a5" fill-rule="evenodd"></path><path id="Path_137" data-name="Path 137" d="M118.345,71.229c-2.351-.045-4.7-.271-7.054-.452-1.13-.09-2.261-.226-3.392-.362s-2.261-.271-3.391-.452c-2.351-.362-4.658-.769-6.964-1.357-2.351-.588-4.658-1.221-6.964-1.9-2.261-.678-4.477-1.311-6.738-1.99-2.261-.633-4.522-1.311-6.828-1.809l-.678-.136c-.588-.09-1.13-.181-1.718-.317-.271-.045-.588-.045-.859-.09-.271,0-.588-.09-.814-.09-.543,0-1.04-.09-1.583-.09H69.779c-.5,0-.995,0-1.447.045-.588.045-1.221.09-1.809.181-.678.09-1.357.181-2.08.271-.633.09-1.221.181-1.854.317-.588.09-1.176.226-1.764.271a1.1,1.1,0,0,1-1.085-1.085,1.119,1.119,0,0,1,.95-1.085,10.56,10.56,0,0,0,1.176-.181c.543-.09,1.04-.181,1.583-.271,1.04-.181,2.125-.317,3.165-.407.543-.045,1.085-.136,1.628-.136.5,0,1.04-.09,1.583-.045h1.628a4.138,4.138,0,0,1,.769.045,4.925,4.925,0,0,1,.859.045c1.176.09,2.351.317,3.527.5.588.09,1.221.271,1.809.407s1.13.271,1.673.407c1.131.271,2.306.633,3.437.95s2.261.678,3.391.995c2.171.633,4.386,1.311,6.557,1.9,2.125.588,4.3,1.13,6.466,1.628,2.216.452,4.432.859,6.693,1.13,2.351.271,4.658.543,7.009.724.452,0,.9.09,1.266.09,2.261.136,4.477.271,6.738.226,2.261,0,4.522-.09,6.647-.226q2.238-.136,4.477-.407a1.107,1.107,0,0,1,1.221.9,1.073,1.073,0,0,1-.9,1.221c-2.442.271-4.884.452-7.371.543-1.266.045-2.532.09-3.8.09h-.362c-1.04,0-2.125,0-3.165-.045Z" transform="translate(210.441 211.424)" fill="#ffb7a5" fill-rule="evenodd"></path><path id="Path_138" data-name="Path 138" d="M117.861,79.164c-2.351,0-4.7-.136-7.054-.362A110.445,110.445,0,0,1,96.879,76.5q-1.7-.407-3.391-.95c-1.085-.317-2.216-.678-3.3-1.085-2.216-.859-4.341-1.764-6.512-2.713l-4.884-2.171c-1.537-.678-3.12-1.311-4.612-1.854-1.04-.362-2.08-.678-3.12-.995-1.085-.317-2.125-.588-3.211-.859-.769-.136-1.492-.271-2.261-.362s-1.537-.181-2.261-.226a44.8,44.8,0,0,0-4.929,0c-.995.09-1.944.181-2.894.317-.859.136-1.764.271-2.623.452a1.073,1.073,0,0,1-1.221-.9,1.135,1.135,0,0,1,.9-1.221c1.04-.226,2.125-.362,3.165-.543,1.176-.181,2.351-.226,3.527-.317,1.13-.045,2.306,0,3.437,0a32.663,32.663,0,0,1,3.618.362,28.864,28.864,0,0,1,3.437.678c1.176.317,2.351.678,3.527,1.04a63.579,63.579,0,0,1,6.376,2.4c4.16,1.854,8.275,3.8,12.571,5.336h0c1.311.452,2.668.859,4.025,1.221s2.758.678,4.115.95a110.23,110.23,0,0,0,13.2,1.809,73.92,73.92,0,0,0,8.954,0c.814-.045,1.628-.136,2.4-.226a1.074,1.074,0,0,1,.317,2.125,55.574,55.574,0,0,1-6.738.407h-.678Z" transform="translate(181.939 221.984)" fill="#ffb7a5" fill-rule="evenodd"></path><path id="Path_139" data-name="Path 139" d="M80.837,80.019a38.825,38.825,0,0,1-3.753-1.583c-1.04-.5-2.035-1.085-3.03-1.673-1.99-1.221-3.934-2.532-5.833-3.889-1.176-.859-2.306-1.718-3.437-2.578-1.04-.814-2.035-1.628-3.075-2.351a1.966,1.966,0,0,0-.317-.181,1.094,1.094,0,1,1,1.085-1.9,8.485,8.485,0,0,1,.814.543l1.221.95c.859.678,1.673,1.311,2.532,1.944,1.673,1.266,3.391,2.532,5.11,3.663.9.588,1.764,1.176,2.668,1.718.95.588,1.9,1.085,2.894,1.628a41.955,41.955,0,0,0,3.889,1.673,1.123,1.123,0,0,1,.588,1.4,1.084,1.084,0,0,1-.995.633.672.672,0,0,1-.407-.09Z" transform="translate(214.35 231.439)" fill="#ffb7a5" fill-rule="evenodd"></path><path id="Path_140" data-name="Path 140" d="M83.348,111.357A36.176,36.176,0,0,1,80,109.368l-1.628-1.085a16.532,16.532,0,0,1-1.4-1.085,13.47,13.47,0,0,1-1.221-1.04c-.407-.362-.859-.769-1.266-1.176a32.331,32.331,0,0,1-2.4-2.578c-.362-.452-.769-.9-1.085-1.357-.362-.5-.769-.995-1.13-1.537l-.543-.814c-.136-.226-.317-.452-.452-.678-.317-.543-.588-1.04-.9-1.583-.271-.5-.543-1.04-.814-1.583-.136-.271-.226-.543-.362-.814s-.226-.543-.362-.814c-.452-1.085-.859-2.171-1.266-3.3a55.721,55.721,0,0,0-2.487-6.014c-.226-.452-.452-.859-.633-1.311a34.5,34.5,0,0,0-2.035-3.437l-.724-1.085c-.859-1.221-1.764-2.4-2.668-3.482a31.1,31.1,0,0,0-2.442-2.442c-.407-.317-.769-.633-1.085-.859a.14.14,0,0,1-.09-.045,1.146,1.146,0,0,1-.407-1.492,1.158,1.158,0,0,1,1.492-.407,14.837,14.837,0,0,1,1.944,1.492,20.541,20.541,0,0,1,1.718,1.718,33.6,33.6,0,0,1,3.256,4.16,45.588,45.588,0,0,1,2.939,4.793c.5.995.995,1.944,1.4,2.939.452,1.085.9,2.171,1.311,3.3.407,1.04.769,2.08,1.176,3.12.362.995.814,1.944,1.266,2.939.226.407.407.814.633,1.266a7.2,7.2,0,0,0,.588.995,11.44,11.44,0,0,0,.588.995c.271.452.543.859.814,1.266.362.452.678.95,1.04,1.4a7.862,7.862,0,0,0,.588.678c.181.226.362.452.5.633.5.588,1.04,1.131,1.583,1.718.588.588,1.221,1.176,1.854,1.764a18.229,18.229,0,0,0,1.447,1.176c.543.407,1.085.814,1.673,1.221a41.088,41.088,0,0,0,4.115,2.442,1.146,1.146,0,0,1,.407,1.492,1.045,1.045,0,0,1-.9.543,1.2,1.2,0,0,1-.543-.136Z" transform="translate(184.843 243.738)" fill="#ffb7a5" fill-rule="evenodd"></path><path id="Path_141" data-name="Path 141" d="M36.641,233.661c5.336-5.245,10.039-11.26,12.255-18.495,3.708-11.576,6.873-23.333,10.627-34.91,4.974-14.968,11.35-29.438,15.42-44.722C81.635,114.01,87.468,92.214,95.472,71.1c2.171-6.2,4.115-12.571,6.059-18.766a265.176,265.176,0,0,1-7.868,38.392c-4.839,18.314-9.406,36.719-13.973,55.123-3.12,12.978-8.456,25.233-12.345,37.939-4.3,14.425-7.054,30.523-17.952,41.647-3.663,3.708-8.411,5.879-12.8,8.456h.181s.09-.045.09,0c-.226.226-.452.136-.181-.226Z" transform="translate(128.81 184.244)" fill="#ffb7a5" fill-rule="evenodd"></path><path id="Path_142" data-name="Path 142" d="M30.423,95.62a57.791,57.791,0,0,1-6.783-.814c.588-.181,1.357-.226,1.99-.362C41.185,91.957,51.088,77.623,65.74,73.01c9.315-3.256,19.128.271,27.448,4.612,4.929,2.578,10.084,5.155,13.792,9.451a2.66,2.66,0,0,0,1.311.859c-1.176,0-2.035-1.085-2.984-1.673a20.952,20.952,0,0,0-4.612-2.306,90.682,90.682,0,0,0-21.344-3.979,29.238,29.238,0,0,0-11.169,1.4C55.52,86.4,44.532,95.8,30.378,95.665Z" transform="translate(83.297 252.602)" fill="#ffb7a5" fill-rule="evenodd"></path><path id="Path_143" data-name="Path 143" d="M56.963,93.988c-12.888.09-20.258-5.969-28.986-14.516a91.1,91.1,0,0,0-12.571-9.541c-.9-.678-2.758-1.583-3.256-2.351h0c5.11,2.306,10.762,3.708,15.872,6.2,7.235,3.211,13.249,8.547,20.62,11.531a69.881,69.881,0,0,0,29.529,4.16c.814-.045,1.673-.317,2.4-.362a63.107,63.107,0,0,1-23.6,4.839Z" transform="translate(42.83 237.954)" fill="#ffb7a5" fill-rule="evenodd"></path><path id="Path_144" data-name="Path 144" d="M81.688,134.427C53.516,130.4,54.6,126.6,35.383,108.923,8.794,92.146,2.146,79.44,1.378,48.1c0-1.176-.136-2.442-.09-3.572,1.176,4.612,2.306,9.134,3.889,13.611C9.608,71.617,15.758,85,27.379,93.684c5.155,3.844,11.3,6.15,16.1,10.581,6.828,6.2,11.757,14.289,18.947,20.032A72.469,72.469,0,0,0,82.14,134.336h.181c0-.045-.136-.271-.045-.271.407.5-.362.407-.678.362Z" transform="translate(4.538 156.773)" fill="#ffb7a5" fill-rule="evenodd"></path><path id="Path_145" data-name="Path 145" d="M26.106,90.533c2.306-8.275-3.075-15.917-5.155-23.65-4.432-15.556-6.964-33.01-1.13-48.476.271-.5.5-.452.995-.407-.09.09-.407,0-.543.09a3.126,3.126,0,0,0-.452,1.13c-2.261,15.149,3.527,29.664,5.607,44.5,1.266,8.682,5.291,18.631.633,26.815Z" transform="translate(57.86 63.244)" fill="#ffb7a5" fill-rule="evenodd"></path><path id="Path_146" data-name="Path 146" d="M110.11,122.217c-17.274-2.578-32.649-12.933-44.541-25.368-5.788-5.607-13.7-18.495-21.434-20.032v.045h0L44.27,77h0c-.136-.045-.226-.136-.181-.271,0-.09.271-.09.362-.136,5.426.588,10.039,4.205,14.244,7.416,8.727,6.873,17.455,14.832,26.227,21.434,9.451,6.693,19.218,14.244,30.84,16.6a11.672,11.672,0,0,1,1.311.136A23.963,23.963,0,0,1,110.11,122.217Z" transform="translate(155.277 269.687)" fill="#ffb7a5" fill-rule="evenodd"></path><path id="Path_147" data-name="Path 147" d="M113.143,92.866a107.3,107.3,0,0,1-17.952-2.532c-8.954-2.261-17.952-5.426-27.313-5.155-2.713.136-5.562.09-8.094.995,0,0-.09.09-.09.136v.09h0c-.362-.362.814-.769,1.04-.859,13.7-4.974,28.805-3.663,42.959-1.311,13.521,2.306,27.629,6.421,41.15,2.351-9.18,6.059-20.982,6.466-31.7,6.286Z" transform="translate(210.035 289.225)" fill="#ffb7a5" fill-rule="evenodd"></path><path id="Path_148" data-name="Path 148" d="M71.728,93.733c-1.4-1.357,3.12-8.637,4.07-10.265,9.36-15.375,25.142-9.948,39.793-10.9a18.126,18.126,0,0,0,4.07-1.13,16.666,16.666,0,0,1-5.426,3.844c-11.169,5.246-25.323,1.221-35.226,9.5a38.786,38.786,0,0,0-6.24,6.24,4.783,4.783,0,0,0-1.176,2.4h0s.045.226.136.271h0Z" transform="translate(251.721 251.549)" fill="#ffb7a5" fill-rule="evenodd"></path><path id="Path_149" data-name="Path 149" d="M75.771,110.294C71.2,109.209,68.129,100.21,67.541,96,65.914,83.072,73.1,71.224,80.113,60.914,88.478,48.841,96.12,45.042,98.02,29.08c0-.181.226-1.492.678-1.221,0,.045-.045,0-.09,0h0c-.678,3.572.271,7.371-.226,11.034a30.79,30.79,0,0,1-1.944,9.044c-6.1,13.792-15.736,25.775-21.66,39.658-2.261,5.743-3.572,12.164-1.764,18.178.543,1.718,1.085,3.708,2.758,4.477Z" transform="translate(237.097 97.927)" fill="#ffb7a5" fill-rule="evenodd"></path></g></g></svg>