<svg xmlns="http://www.w3.org/2000/svg" width="939.5" height="151.987" viewBox="0 0 939.5 151.987"><g id="Bar" opacity="0.33"><path id="Path_350" data-name="Path 350" d="M151.289,27.642l6.9,6.9,6.91-6.91-6.9-6.9,6.91-6.91,6.9,6.9.007.007,6.9,6.9L172,34.531l-6.91,6.91-6.91,6.91-6.91,6.91-6.91,6.91-6.91,6.91-6.9-6.9,6.91-6.91-6.91-6.91-6.91,6.91-6.91,6.91,6.91,6.91h0l6.9,6.9.007.007,6.9,6.9,6.91-6.91,6.91-6.91,6.91-6.91,6.91-6.91,6.91-6.91,6.91-6.91,6.91-6.91,6.9,6.9.007.007,6.9,6.9.007.007,6.9,6.9,6.91-6.91-6.91-6.91-6.9-6.9-6.9-6.9-6.91-6.91-6.9-6.9-.007-.007-6.9-6.9-.007-.007L165.11,0,158.2,6.91l-6.91,6.91-6.91,6.91,6.9,6.9Z" transform="translate(-89.095)" fill="#fff"></path><path id="Path_351" data-name="Path 351" d="M384.719,27.642l6.9,6.9,6.91-6.91-6.9-6.9,6.91-6.91,6.9,6.9.007.007,6.9,6.9-6.91,6.91-6.91,6.91-6.91,6.91-6.91,6.91-6.91,6.91-6.91,6.91-6.9-6.9,6.91-6.91-6.91-6.91-6.91,6.91-6.91,6.91,6.9,6.9.007.007,6.9,6.9,6.9,6.9,6.91-6.91,6.91-6.91,6.91-6.91,6.91-6.91,6.91-6.91,6.91-6.91,6.91-6.91,6.9,6.9,6.9,6.9,6.9,6.9,6.91-6.91-6.9-6.9-6.9-6.9-6.91-6.91-6.9-6.9-.007-.007-6.9-6.9-.007-.007-6.9-6.9-.007-.007L398.54,0l-6.91,6.91-6.91,6.91-6.91,6.91,6.9,6.9Z" transform="translate(-267.263)" fill="#fff"></path><path id="Path_352" data-name="Path 352" d="M618.149,27.642l6.9,6.9,6.91-6.91-6.9-6.9,6.91-6.91,6.9,6.9.007.007,6.9,6.9-6.91,6.91-6.91,6.91-6.91,6.91-6.91,6.91-6.91,6.91-6.91,6.91-6.9-6.9,6.91-6.91-6.91-6.91-6.91,6.91-6.91,6.91,6.9,6.9.007.007,6.9,6.9L597.4,76l6.9,6.9,6.91-6.91,6.91-6.91,6.91-6.91,6.91-6.91,6.91-6.91,6.91-6.91,6.91-6.91,6.9,6.9,6.9,6.9.007.007,6.9,6.9,6.91-6.91-6.91-6.91-6.9-6.9-.007-.007-6.9-6.9-.007-.007-6.9-6.9-.007-.007-6.9-6.9-.007-.007-6.9-6.9-.007-.007L631.97,0l-6.91,6.91-6.91,6.91-6.91,6.91,6.9,6.9Z" transform="translate(-445.431)" fill="#fff"></path><path id="Path_353" data-name="Path 353" d="M858.483,34.545l6.91-6.91-6.9-6.9,6.91-6.91h0l6.9,6.9.007.007,6.9,6.9h0l-6.91,6.91-6.91,6.91-6.91,6.91-6.91,6.91-6.91,6.91-6.91,6.91-6.9-6.9,6.91-6.91-6.91-6.91-6.91,6.91-6.91,6.91,6.9,6.9.007.007,6.9,6.9.007.007,6.9,6.9,6.91-6.91,6.91-6.91,6.91-6.91,6.91-6.91,6.91-6.91,6.91-6.91,6.91-6.91,6.894,6.9.009.007,6.894,6.9.009.007,6.9,6.9,6.91-6.91-6.91-6.91-6.894-6.9-6.9-6.9-.007-.007-6.9-6.9-.007-.007-6.9-6.9-.007-.007-6.9-6.9L865.4,0l-6.91,6.91-6.91,6.91-6.91,6.91,6.9,6.9Z" transform="translate(-623.599)" fill="#fff"></path><path id="Path_354" data-name="Path 354" d="M1091.912,34.545l6.911-6.91-6.9-6.9,6.911-6.91,6.894,6.9.01.007,6.894,6.9-6.91,6.91-6.91,6.91-6.91,6.91-6.911,6.91-6.91,6.91-6.91,6.91-6.894-6.9,6.911-6.91-6.911-6.91-6.91,6.91-6.91,6.91,6.9,6.9.007.007,6.894,6.9.009.007,6.9,6.9,6.91-6.91,6.91-6.91,6.911-6.91,6.91-6.91,6.91-6.91,6.91-6.91,6.91-6.91,6.9,6.9,6.91,6.91,6.9,6.9,6.91-6.91-6.91-6.91-6.9-6.9-6.9-6.9-6.9-6.9-6.91-6.91-6.894-6.9L1098.83,0l-6.911,6.91-6.91,6.91-6.91,6.91,6.9,6.9Z" transform="translate(-801.767)" fill="#fff"></path><path id="Path_355" data-name="Path 355" d="M1325.333,34.545l6.91-6.91-6.9-6.9,6.91-6.91,6.9,6.9.007.007,6.9,6.9-6.91,6.91-6.91,6.91-6.91,6.91-6.91,6.91-6.911,6.91-6.91,6.91-6.9-6.9,6.91-6.91-6.91-6.91-6.911,6.91-6.91,6.91,6.9,6.9,6.91,6.91,6.9,6.9,6.91-6.91,6.911-6.91,6.91-6.91,6.91-6.91,6.91-6.91,6.91-6.91,6.91-6.91,6.9,6.9,6.9,6.9,6.91,6.91,6.91-6.91-6.9-6.9-.007-.007-6.9-6.9-6.911-6.91-6.9-6.9-.007-.007-6.9-6.9-.007-.007-6.9-6.9-6.9-6.9-6.91,6.91-6.91,6.91-6.91,6.91,6.91,6.91Z" transform="translate(-979.927)" fill="#fff"></path><path id="Path_356" data-name="Path 356" d="M1558.763,34.545l6.91-6.91-6.9-6.9,6.91-6.91,6.9,6.9.007.007,6.9,6.9-6.91,6.91-6.911,6.91-6.91,6.91-6.91,6.91-6.91,6.91-6.91,6.91-6.9-6.9,6.91-6.91-6.91-6.91-6.91,6.91-6.91,6.91,6.9,6.9,6.9,6.9,6.91,6.91,6.91-6.91,6.91-6.91,6.91-6.91,6.91-6.91,6.911-6.91,6.91-6.91,6.91-6.91,6.9,6.9.007.007,6.9,6.9,6.9,6.9,6.911-6.91-6.9-6.9-.007-.007-6.9-6.9-6.9-6.9-6.9-6.9-6.911-6.91-6.9-6.9-6.9-6.9-6.91,6.91-6.91,6.91-6.91,6.91,6.91,6.91Z" transform="translate(-1158.095)" fill="#fff"></path><path id="Path_357" data-name="Path 357" d="M1785.289,27.642l6.9,6.9,6.91-6.91-6.9-6.9,6.91-6.91,6.9,6.9.007.007,6.9,6.9L1806,34.531l-6.91,6.91-6.91,6.91-6.91,6.91-6.91,6.91-6.91,6.91-6.9-6.9,6.91-6.91-6.91-6.91-6.91,6.91-6.91,6.91,6.91,6.91,6.9,6.9h0l6.9,6.9,6.91-6.91,6.91-6.91,6.91-6.91,6.91-6.91,6.91-6.91,6.911-6.91,6.91-6.91,6.9,6.9.007.007,6.9,6.9.007.007,6.9,6.9,6.91-6.91-6.9-6.9-6.9-6.9-6.91-6.91-6.9-6.9-.007-.007-6.9-6.9-.007-.007-6.9-6.9-.007-.007-6.9-6.9-6.91,6.91-6.911,6.91-6.91,6.91,6.9,6.9Z" transform="translate(-1336.263)" fill="#fff"></path><path id="Path_358" data-name="Path 358" d="M2018.719,27.642l6.9,6.9,6.91-6.91-6.9-6.9,6.91-6.91,6.9,6.9,6.9,6.9-6.91,6.91-6.911,6.91-6.91,6.91-6.91,6.91-6.91,6.91-6.911,6.91-6.9-6.9,6.91-6.91-6.91-6.91-6.911,6.91-6.91,6.91,6.91,6.91,6.9,6.9,6.91,6.91,6.911-6.91,6.91-6.91,6.91-6.91,6.91-6.91,6.911-6.91,6.91-6.91,6.91-6.91,6.9,6.9,6.91,6.91,6.9,6.9,6.91-6.91-6.9-6.9-6.91-6.91-6.9-6.9-.007-.007-6.9-6.9-.007-.007-6.9-6.9-.007-.007-6.9-6.9-.007-.007-6.9-6.9-6.91,6.91-6.911,6.91-6.91,6.91,6.9,6.9Z" transform="translate(-1514.431)" fill="#fff"></path><path id="Path_359" data-name="Path 359" d="M2259.053,34.545l6.91-6.91-6.9-6.9,6.91-6.91,6.9,6.9,6.9,6.9-6.91,6.91-6.91,6.91-6.911,6.91-6.91,6.91-6.91,6.91-6.91,6.91-6.9-6.9,6.91-6.91-6.91-6.91-6.91,6.91-6.91,6.91,6.9,6.9.007.007,6.9,6.9.007.007,6.9,6.9,6.91-6.91,6.91-6.91,6.91-6.91,6.911-6.91,6.91-6.91,6.91-6.91,6.91-6.91,6.9,6.9,6.9,6.9,6.9,6.9,6.91-6.91-6.9-6.9-.007-.007-6.9-6.9-.007-.007-6.9-6.9-.007-.007-6.9-6.9-.007-.007-6.9-6.9-.007-.007-6.9-6.9-.007-.007-6.9-6.9-6.91,6.91-6.91,6.91-6.911,6.91,6.911,6.91Z" transform="translate(-1692.599)" fill="#fff"></path><path id="Path_360" data-name="Path 360" d="M2492.482,34.545l6.911-6.91-6.9-6.9,6.91-6.91,6.9,6.9h0l6.9,6.9-6.911,6.91-6.91,6.91-6.911,6.91-6.91,6.91-6.91,6.91-6.91,6.91-6.9-6.9,6.91-6.91-6.91-6.91-6.91,6.91-6.91,6.91,6.9,6.9.007.007,6.9,6.9.007.007,6.9,6.9,6.91-6.91,6.91-6.91,6.91-6.91,6.911-6.91,6.91-6.91,6.911-6.91,6.91-6.91,6.9,6.9.007.007,6.9,6.9.007.007,6.9,6.9,6.91-6.91-6.9-6.9-.007-.007-6.9-6.9-.007-.007-6.9-6.9-.007-.007-6.9-6.9-.007-.007-6.9-6.9-6.9-6.9L2499.4,0l-6.91,6.91-6.911,6.91-6.91,6.91,6.9,6.9Z" transform="translate(-1870.767)" fill="#fff"></path><path id="Path_361" data-name="Path 361" d="M2725.913,34.545l6.91-6.91-6.9-6.9,6.91-6.91,6.9,6.9,6.9,6.9-6.91,6.91-6.91,6.91-6.91,6.91-6.91,6.91-6.91,6.91-6.91,6.91-6.9-6.9,6.91-6.91-6.91-6.91-6.91,6.91-6.91,6.91,6.91,6.91,6.9,6.9.007.007,6.9,6.9,6.91-6.91,6.91-6.91,6.91-6.91,6.91-6.91,6.91-6.91,6.91-6.91,6.911-6.91,6.9,6.9,6.9,6.9,6.911,6.91,6.91-6.91-6.91-6.91-6.9-6.9-6.9-6.9-6.91-6.91-6.9-6.9-6.9-6.9L2732.83,0l-6.91,6.91-6.911,6.91-6.91,6.91,6.91,6.91Z" transform="translate(-2048.935)" fill="#fff"></path><path id="Path_362" data-name="Path 362" d="M2952.439,27.642l6.9,6.9,6.91-6.91-6.9-6.9,6.91-6.91,6.9,6.9.007.007,6.9,6.9-6.91,6.91-6.91,6.91-6.911,6.91-6.91,6.91-6.911,6.91-6.91,6.91-6.9-6.9,6.911-6.91-6.911-6.91-6.91,6.91-6.911,6.91,6.9,6.9,6.9,6.9,6.91,6.91,6.91-6.91,6.911-6.91,6.91-6.91,6.911-6.91,6.91-6.91,6.91-6.91,6.91-6.91,6.9,6.9,6.9,6.9,6.91,6.91,6.91-6.91-6.9-6.9-6.91-6.91-6.9-6.9-.007-.007-6.9-6.9-.007-.007-6.9-6.9-.007-.007-6.9-6.9-.007-.007-6.9-6.9-6.91,6.91-6.91,6.91-6.91,6.91,6.9,6.9Z" transform="translate(-2227.103)" fill="#fff"></path><path id="Path_363" data-name="Path 363" d="M3192.772,34.545l6.91-6.91-6.9-6.9,6.91-6.91,6.9,6.9.007.007,6.9,6.9-6.91,6.91-6.91,6.91-6.91,6.91-6.91,6.91-6.91,6.91-6.91,6.91-6.9-6.9,6.91-6.91-6.91-6.91-6.91,6.91-6.91,6.91,6.91,6.91,6.9,6.9,6.91,6.91,6.91-6.91,6.91-6.91,6.91-6.91,6.91-6.91,6.91-6.91,6.91-6.91,6.91-6.91,6.894,6.9.007.007,6.9,6.9.007.007,6.9,6.9,6.91-6.91-6.91-6.91-6.9-6.9-6.9-6.9-6.911-6.91-6.9-6.9-6.9-6.9-6.9-6.9-6.91,6.91-6.91,6.91-6.91,6.91,6.91,6.91Z" transform="translate(-2405.271)" fill="#fff"></path><path id="Path_364" data-name="Path 364" d="M3426.2,34.545l6.91-6.91-6.9-6.9,6.908-6.91,6.9,6.9,6.9,6.9-6.91,6.91-6.91,6.91-6.91,6.91-6.91,6.91-6.91,6.91-6.911,6.91-6.9-6.9,6.91-6.91-6.91-6.91-6.911,6.91-6.908,6.91,6.9,6.9.01.007,6.894,6.9,6.91,6.91,6.911-6.91,6.91-6.91,6.91-6.91,6.91-6.91,6.91-6.91,6.91-6.91,6.91-6.91,6.9,6.9.007.007,6.9,6.9.007.007,6.9,6.9,6.91-6.91-6.9-6.9-6.91-6.91-6.9-6.9-.007-.007-6.9-6.9-.007-.007-6.9-6.9-6.91-6.91-6.9-6.9-6.91,6.91-6.908,6.91-6.911,6.91,6.911,6.91Z" transform="translate(-2583.439)" fill="#fff"></path><path id="Path_365" data-name="Path 365" d="M178.91,333.251l6.91-6.91,6.9,6.9.007.007,6.9,6.9,6.91,6.91,6.91-6.91-6.9-6.9-6.91-6.91-6.9-6.9-.007-.007-6.9-6.9-.007-.007-6.9-6.9-.007-.007-6.9-6.9-.007-.007-6.9-6.9-6.91,6.91-6.91,6.91-6.91,6.91,6.9,6.9.007.007,6.9,6.9,6.91-6.91-6.9-6.9,6.91-6.91,6.9,6.9,6.9,6.9-6.91,6.91-6.91,6.91-6.91,6.91-6.91,6.91-6.91,6.91-6.91,6.91-6.9-6.9,6.91-6.91-6.91-6.91-6.91,6.91L116.73,354l6.91,6.91,6.9,6.9,6.9,6.9,6.91-6.91,6.91-6.91,6.91-6.91,6.91-6.91,6.91-6.91Z" transform="translate(-89.095 -222.727)" fill="#fff"></path><path id="Path_366" data-name="Path 366" d="M412.34,333.251l6.91-6.91,6.9,6.9,6.9,6.9,6.9,6.9,6.91-6.91-6.91-6.91-6.9-6.9-.007-.007-6.9-6.9-.007-.007-6.9-6.9-.007-.007-6.9-6.9-.007-.007-6.9-6.9-.007-.007-6.9-6.9-6.91,6.91-6.91,6.91-6.91,6.91,6.9,6.9.007.007,6.9,6.9,6.91-6.91-6.9-6.9,6.91-6.91,6.9,6.9,6.9,6.9-6.91,6.91-6.91,6.91-6.91,6.91-6.91,6.91-6.91,6.91-6.91,6.91-6.9-6.9,6.91-6.91-6.91-6.91-6.91,6.91L350.16,354l6.9,6.9.007.007,6.9,6.9.007.007,6.9,6.9,6.91-6.91,6.91-6.91,6.91-6.91,6.91-6.91,6.91-6.91Z" transform="translate(-267.263 -222.727)" fill="#fff"></path><path id="Path_367" data-name="Path 367" d="M645.77,333.251l6.91-6.91,6.9,6.9.007.007,6.9,6.9.007.007,6.9,6.9,6.91-6.91-6.9-6.9-.007-.007-6.9-6.9-.007-.007-6.9-6.9-.007-.007-6.9-6.9-.007-.007-6.9-6.9-.007-.007-6.9-6.9-6.9-6.9-6.91,6.91-6.91,6.91-6.91,6.91,6.9,6.9,6.91,6.91,6.91-6.91-6.9-6.9,6.91-6.91,6.9,6.9h0l6.9,6.9-6.91,6.91-6.91,6.91-6.91,6.91-6.91,6.91-6.91,6.91-6.91,6.91-6.9-6.9,6.91-6.91-6.91-6.91-6.91,6.91L583.59,354l6.9,6.9.007.007,6.9,6.9.007.007,6.9,6.9,6.91-6.91,6.91-6.91,6.91-6.91,6.91-6.91,6.91-6.91Z" transform="translate(-445.431 -222.727)" fill="#fff"></path><path id="Path_368" data-name="Path 368" d="M879.2,333.251l6.91-6.91,6.894,6.9,6.913,6.91,6.9,6.9,6.91-6.91-6.91-6.91-6.894-6.9-6.9-6.9-.007-.007-6.9-6.9-6.9-6.9-6.9-6.9-6.91-6.91-6.91,6.91-6.91,6.91-6.91,6.91,6.91,6.91,6.9,6.9,6.91-6.91-6.9-6.9,6.91-6.91,6.9,6.9,6.9,6.9-6.91,6.91-6.91,6.91-6.91,6.91-6.91,6.91-6.91,6.91-6.91,6.91-6.9-6.9,6.91-6.91-6.91-6.91-6.91,6.91L817.02,354l6.91,6.91,6.9,6.9.007.007,6.9,6.9,6.91-6.91,6.91-6.91,6.91-6.91,6.91-6.91,6.91-6.91Z" transform="translate(-623.599 -222.727)" fill="#fff"></path><path id="Path_369" data-name="Path 369" d="M1112.627,333.251l6.91-6.91,6.9,6.9,6.9,6.9,6.91,6.91,6.91-6.91-6.91-6.91-6.9-6.9-6.9-6.9-6.9-6.9-6.9-6.9-6.91-6.91-6.9-6.9-6.911,6.91-6.91,6.91-6.91,6.91,6.9,6.9.007.007,6.9,6.9,6.911-6.91-6.9-6.9,6.911-6.91,6.894,6.9.01.007,6.894,6.9-6.91,6.91-6.91,6.91-6.91,6.91-6.911,6.91-6.91,6.91-6.91,6.91-6.894-6.9,6.911-6.91-6.911-6.91-6.91,6.91-6.91,6.91,6.9,6.9,6.91,6.91,6.9,6.9,6.91-6.91,6.91-6.91,6.911-6.91,6.91-6.91,6.91-6.91Z" transform="translate(-801.767 -222.727)" fill="#fff"></path><path id="Path_370" data-name="Path 370" d="M1346.05,333.251l6.91-6.91,6.9,6.9.007.007,6.9,6.9,6.9,6.9,6.91-6.91-6.91-6.91-6.9-6.9-6.9-6.9-.007-.007-6.9-6.9-6.9-6.9-6.9-6.9-6.9-6.9-6.91,6.91-6.91,6.91-6.91,6.91,6.91,6.91,6.9,6.9,6.91-6.91-6.9-6.9,6.91-6.91,6.9,6.9.007.007,6.9,6.9-6.91,6.91-6.91,6.91-6.91,6.91-6.91,6.91-6.911,6.91-6.91,6.91-6.9-6.9,6.91-6.91-6.91-6.91-6.911,6.91-6.91,6.91,6.91,6.91,6.9,6.9,6.91,6.91,6.91-6.91,6.911-6.91,6.91-6.91,6.91-6.91,6.91-6.91Z" transform="translate(-979.927 -222.727)" fill="#fff"></path><path id="Path_371" data-name="Path 371" d="M1579.48,333.251l6.91-6.91,6.9,6.9.007.007,6.9,6.9.007.007,6.9,6.9,6.911-6.91-6.9-6.9-6.9-6.9-6.91-6.91-6.9-6.9-6.911-6.91-6.9-6.9-6.9-6.9-6.91,6.91-6.91,6.91-6.91,6.91,6.91,6.91,6.9,6.9,6.91-6.91-6.9-6.9,6.91-6.91,6.9,6.9.007.007,6.9,6.9-6.91,6.91-6.911,6.91-6.91,6.91-6.91,6.91-6.91,6.91-6.91,6.91-6.9-6.9,6.91-6.91-6.91-6.91-6.91,6.91L1517.3,354l6.9,6.9.007.007,6.9,6.9.007.007,6.9,6.9,6.91-6.91,6.91-6.91,6.91-6.91,6.91-6.91,6.911-6.91Z" transform="translate(-1158.095 -222.727)" fill="#fff"></path><path id="Path_372" data-name="Path 372" d="M1812.91,333.251l6.91-6.91,6.9,6.9.007.007,6.9,6.9.007.007,6.9,6.9,6.91-6.91-6.91-6.91-6.9-6.9-.007-.007-6.9-6.9-.007-.007-6.9-6.9-.007-.007-6.9-6.9-.007-.007-6.9-6.9-.007-.007-6.9-6.9-6.91,6.91-6.911,6.91-6.91,6.91,6.9,6.9.007.007,6.9,6.9,6.91-6.91-6.9-6.9,6.91-6.91,6.9,6.9,6.9,6.9-6.911,6.91-6.91,6.91-6.91,6.91-6.91,6.91-6.91,6.91-6.91,6.91-6.9-6.9,6.91-6.91-6.91-6.91-6.91,6.91-6.91,6.91,6.91,6.91,6.9,6.9,6.9,6.9,6.91-6.91,6.91-6.91,6.91-6.91,6.91-6.91,6.91-6.91Z" transform="translate(-1336.263 -222.727)" fill="#fff"></path><path id="Path_373" data-name="Path 373" d="M2046.34,333.251l6.91-6.91,6.9,6.9,6.91,6.91,6.9,6.9,6.91-6.91-6.9-6.9-.007-.007-6.9-6.9-.007-.007-6.9-6.9-.007-.007-6.9-6.9-.007-.007-6.9-6.9-.007-.007-6.9-6.9-6.9-6.9-6.91,6.91-6.911,6.91-6.91,6.91,6.91,6.91,6.9,6.9,6.91-6.91-6.9-6.9,6.91-6.91,6.9,6.9,6.9,6.9-6.91,6.91-6.911,6.91-6.91,6.91-6.91,6.91-6.91,6.91-6.911,6.91-6.9-6.9,6.91-6.91-6.91-6.91-6.911,6.91-6.91,6.91,6.91,6.91,6.9,6.9,6.91,6.91,6.911-6.91,6.91-6.91,6.91-6.91,6.91-6.91,6.911-6.91Z" transform="translate(-1514.431 -222.727)" fill="#fff"></path><path id="Path_374" data-name="Path 374" d="M2272.859,340.162l6.91-6.91,6.91-6.91,6.9,6.9.007.007,6.9,6.9,6.9,6.9,6.91-6.91-6.9-6.9-.007-.007-6.9-6.9-.007-.007-6.9-6.9-.007-.007-6.9-6.9-.007-.007-6.9-6.9-6.9-6.9-6.91-6.91-6.91,6.91-6.91,6.91-6.911,6.91,6.9,6.9,6.911,6.91,6.91-6.91-6.9-6.9,6.91-6.91,6.9,6.9.007.007,6.9,6.9-6.91,6.91-6.91,6.91-6.911,6.91-6.91,6.91-6.91,6.91-6.91,6.91-6.9-6.9,6.91-6.91-6.91-6.91-6.91,6.91-6.91,6.91,6.9,6.9.007.007,6.9,6.9.007.007,6.9,6.9,6.91-6.91,6.91-6.91,6.91-6.91,6.911-6.91h0Z" transform="translate(-1692.599 -222.727)" fill="#fff"></path><path id="Path_375" data-name="Path 375" d="M2513.2,333.251l6.91-6.91h0l6.9,6.9h0l6.9,6.9,6.91,6.91,6.91-6.91-6.9-6.9-.007-.007-6.9-6.9-.007-.007-6.9-6.9-6.9-6.9-6.9-6.9-6.91-6.91-6.9-6.9-6.91,6.91-6.911,6.91-6.91,6.91,6.9,6.9.007.007,6.9,6.9,6.911-6.91-6.9-6.9,6.91-6.91,6.9,6.9,6.9,6.9-6.911,6.91-6.91,6.91-6.911,6.91-6.91,6.91-6.91,6.91-6.91,6.91-6.9-6.9,6.91-6.91-6.91-6.91-6.91,6.91-6.91,6.91,6.9,6.9,6.91,6.91,6.9,6.9,6.91-6.91,6.91-6.91,6.91-6.91,6.911-6.91,6.91-6.91Z" transform="translate(-1870.767 -222.727)" fill="#fff"></path><path id="Path_376" data-name="Path 376" d="M2746.629,333.251l6.911-6.91,6.9,6.9.007.007,6.9,6.9,6.9,6.9,6.91-6.91-6.91-6.91-6.9-6.9-6.9-6.9-6.9-6.9-6.91-6.91-6.9-6.9-.007-.007-6.9-6.9-6.91,6.91-6.911,6.91-6.91,6.91,6.9,6.9.007.007,6.9,6.9,6.91-6.91-6.9-6.9,6.91-6.91,6.9,6.9,6.9,6.9-6.91,6.91-6.91,6.91-6.91,6.91-6.91,6.91-6.91,6.91-6.91,6.91-6.9-6.9,6.91-6.91-6.91-6.91-6.91,6.91-6.91,6.91,6.9,6.9,6.9,6.9,6.91,6.91,6.91-6.91,6.91-6.91,6.91-6.91,6.91-6.91,6.91-6.91Z" transform="translate(-2048.935 -222.727)" fill="#fff"></path><path id="Path_377" data-name="Path 377" d="M2980.06,333.251l6.91-6.91,6.9,6.9.007.007,6.9,6.9.007.007,6.9,6.9,6.91-6.91-6.9-6.9-6.9-6.9-.007-.007-6.9-6.9-6.9-6.9-6.9-6.9-6.9-6.9-.007-.007-6.9-6.9-6.91,6.91-6.91,6.91-6.91,6.91,6.9,6.9.007.007,6.9,6.9,6.91-6.91-6.9-6.9,6.91-6.91,6.9,6.9.007.007,6.9,6.9-6.91,6.91-6.91,6.91-6.911,6.91-6.91,6.91-6.911,6.91-6.91,6.91-6.9-6.9,6.911-6.91-6.911-6.91-6.91,6.91L2917.88,354l6.9,6.9.007.007,6.9,6.9,6.9,6.9,6.91-6.91,6.911-6.91,6.91-6.91,6.911-6.91,6.91-6.91Z" transform="translate(-2227.103 -222.727)" fill="#fff"></path><path id="Path_378" data-name="Path 378" d="M3213.49,333.251l6.91-6.91,6.894,6.9.007.007,6.9,6.9.007.007,6.9,6.9,6.91-6.91-6.9-6.9-6.91-6.91-6.894-6.9-6.911-6.91-6.9-6.9-6.9-6.9-6.9-6.9-6.91,6.91-6.91,6.91-6.91,6.91,6.91,6.91,6.9,6.9,6.91-6.91-6.9-6.9,6.91-6.91,6.9,6.9,6.9,6.9-6.91,6.91-6.91,6.91-6.91,6.91-6.91,6.91-6.91,6.91-6.91,6.91-6.9-6.9,6.91-6.91-6.91-6.91-6.91,6.91-6.91,6.91,6.9,6.9.007.007,6.9,6.9.007.007,6.9,6.9,6.91-6.91,6.91-6.91,6.91-6.91,6.91-6.91,6.91-6.91Z" transform="translate(-2405.271 -222.727)" fill="#fff"></path><path id="Path_379" data-name="Path 379" d="M3446.917,333.251l6.91-6.91,6.9,6.9.007.007,6.9,6.9.007.007,6.9,6.9,6.91-6.91-6.9-6.9-.007-.007-6.9-6.9-.007-.007-6.9-6.9-.007-.007-6.9-6.9-.007-.007-6.9-6.9-6.91-6.91-6.9-6.9-6.91,6.91-6.908,6.91-6.911,6.91,6.911,6.91,6.9,6.9,6.91-6.91-6.9-6.9,6.908-6.91,6.9,6.9,6.9,6.9-6.91,6.91-6.91,6.91-6.91,6.91-6.91,6.91-6.91,6.91-6.911,6.91-6.9-6.9,6.91-6.91-6.91-6.91-6.911,6.91L3384.74,354l6.9,6.9.01.007,6.894,6.9,6.91,6.91,6.911-6.91,6.91-6.91,6.91-6.91,6.91-6.91,6.91-6.91Z" transform="translate(-2583.439 -222.727)" fill="#fff"></path><path id="Path_380" data-name="Path 380" d="M6.91,69.083l6.91-6.91,6.91-6.91,6.91-6.91,6.91-6.91,6.91-6.91,6.9,6.9,6.9,6.9,6.91,6.91,6.91-6.91-6.9-6.9-.007-.007-6.9-6.9-.007-.007-6.9-6.9-6.9-6.9-6.9-6.9L27.661,6.906,20.753,0l-6.91,6.91-6.91,6.91-6.91,6.91,6.9,6.9.007.007,6.9,6.9,6.91-6.91-6.9-6.9,6.91-6.91,6.9,6.9.007.007,6.9,6.9-6.91,6.91-6.91,6.91-6.91,6.91-6.91,6.91L0,62.172V75.993H0Z" fill="#fff"></path><path id="Path_381" data-name="Path 381" d="M13.814,159.614,6.9,152.7l-6.9-6.9L0,145.8v13.821l6.9,6.9Z" transform="translate(0 -111.283)" fill="#fff"></path><path id="Path_382" data-name="Path 382" d="M13.814,451.424l-6.9-6.9-.007-.007-6.9-6.9L0,437.61v13.821l6.9,6.9Z" transform="translate(0 -334.01)" fill="#fff"></path><path id="Path_383" data-name="Path 383" d="M34.552,333.251l6.91-6.91,6.9,6.9.007.007,6.9,6.9.007.007,6.9,6.9,6.91-6.91-6.91-6.91-6.9-6.9-6.9-6.9-6.91-6.91-6.9-6.9-.007-.007-6.9-6.9-6.91-6.91-6.91,6.91-6.91,6.91-6.91,6.91,6.9,6.9.007.007,6.9,6.9,6.91-6.91-6.9-6.9,6.91-6.91,6.9,6.9.007.007,6.9,6.9-6.91,6.91-6.91,6.91-6.91,6.91-6.91,6.91L0,353.982V367.8H0l6.91-6.91,6.91-6.91,6.91-6.91,6.91-6.91Z" transform="translate(0 -222.727)" fill="#fff"></path><path id="Path_384" data-name="Path 384" d="M3701.078,34.517l-6.9-6.9-.01.009,0,0-.007-.007-6.9-6.9-.007-.007-6.9-6.9-.007-.007-6.9-6.9-.007-.007-6.9-6.9-6.911,6.91-6.91,6.91-6.91,6.91,6.91,6.91,6.9,6.9,6.91-6.91-6.9-6.9,6.911-6.91,6.9,6.9,6.9,6.9-6.91,6.91-6.911,6.91-6.91,6.91-6.91,6.91-6.91,6.91-6.91,6.91-6.9-6.9,6.91-6.91-6.91-6.91-6.91,6.91-6.91,6.91,6.91,6.91,6.9,6.9,6.9,6.9,6.91-6.91,6.91-6.91,6.91-6.91,6.91-6.91,6.911-6.91,6.91-6.91,6.911-6.91,6.9,6.9.007.007,6.9,6.9.007.007.042.043V34.538Z" transform="translate(-2761.599)" fill="#fff"></path><path id="Path_385" data-name="Path 385" d="M3872.427,225.017l-6.9-6.9,6.91-6.91-6.91-6.91-6.911,6.91-6.91,6.91,6.9,6.9,6.91,6.91,6.9,6.9,6.911-6.91.021-.021V218.085l-.021.021Z" transform="translate(-2939.859 -155.934)" fill="#fff"></path><path id="Path_386" data-name="Path 386" d="M3694.175,319.423l-.01.009,0,0-.007-.007-6.9-6.9-.007-.007-6.9-6.9-6.9-6.9-6.91-6.91-6.911,6.91-6.91,6.91-6.91,6.91,6.9,6.9,6.91,6.91,6.91-6.91-6.9-6.9,6.911-6.91,6.9,6.9,6.9,6.9-6.91,6.91-6.911,6.91-6.91,6.91-6.91,6.91-6.91,6.91-6.91,6.91-6.9-6.9,6.91-6.91-6.91-6.91-6.91,6.91-6.91,6.91,6.91,6.91,6.9,6.9,6.9,6.9,6.91-6.91,6.91-6.91,6.91-6.91,6.91-6.91,6.911-6.91,6.91-6.91,6.911-6.91,6.9,6.9,6.9,6.9.007.007.042.043V326.348l-.021-.021Z" transform="translate(-2761.599 -222.727)" fill="#fff"></path><path id="Path_387" data-name="Path 387" d="M3872.427,516.827l-6.9-6.9,6.91-6.91-6.91-6.91-6.911,6.91-6.91,6.91,6.91,6.91,6.9,6.9,6.91,6.91,6.911-6.91.021-.021V509.9l-.021.021Z" transform="translate(-2939.859 -378.661)" fill="#fff"></path></g></svg>