<svg xmlns="http://www.w3.org/2000/svg" width="376.821" height="376.821" viewBox="0 0 376.821 376.821"><g id="PPink" transform="translate(120.396 376.821) rotate(-135)"><path id="Path_348" data-name="Path 348" d="M59.8,225.408c-.99.693-2.019,1.287-3.028,1.92a28.461,28.461,0,0,0-2.435,3.642c-3.721,7.185-5.522,13.618-14.39,15.281C27.1,248.685,12.332,245.736,0,250.744c.515-4.236,4.632-8.214,7.442-10.926A50.96,50.96,0,0,1,44.18,224.537c4.731,0,9.936.218,14.509-1.366,5.839-4.275,10.174-9.224,15-14.727,2.87-7.066,5.364-14.291,7.66-21.6.356-9.481,1.089-18.962,2.217-28.325A366.221,366.221,0,0,1,99.662,88.2c-1.227,1.485-2.454,2.949-3.662,4.394-5.5,6.671-11.362,13.044-17.359,19.3-.277,2.336-.376,4.711-.693,7.047-1.8,11.441-8.61,21.318-17.854,28.266C45.328,158.247,27.335,163.394,11.4,172.638c.4-3.345,2.831-6.928,4.236-9.9,7.2-15.162,14.766-32.878,28.384-43.408,7.442-5.661,16.449-7.838,25.554-9.125,2.336-.376,5.008-.356,7.482-.792,4.533-4.79,8.986-9.64,13.282-14.647,4.414-5.127,8.234-11.144,12.609-16.389.851-2.375,1.682-4.77,2.553-7.126,9.125-24.525,20.328-50.692,37.212-70.921.752-.911,2.039.237,1.544,1.188-10.016,19.893-20.981,38.835-29.948,59.124-1.979,20.487,4.2,43.289,12.727,63.914,1.009.633,2.118,1.168,3.127,1.841,3.088,1.92,5.4,4.493,8.1,6.928,4.236,3.86,9.244,6.671,12.846,11.184,5.008,5.9,6.156,12.45,6.809,19.913.515,6.671,3.6,12.708,4.236,19.259-5.522-3.088-10.412-7.7-15.281-11.56-6.809-5.265-13.618-10.788-18.111-18.25-5.463-8.828-4.731-17.636-4.355-27.137-2.217-5.7-4.117-11.56-5.8-17.577q-.534-1.9-1.069-3.86a77.156,77.156,0,0,1-.792,11.857c.376,2.177,1.306,4.355,1.623,6.532,1.148,7.7,2.059,17.715-.257,25.178-2.949,10.154-6.176,23.119-12.589,31.591-1.287-4.632-3.721-8.986-5.522-13.361-7.819-18.685,3.741-32.026,13.856-46.535.336-1.584.732-3.147,1.009-4.731,1.128-6.215.435-12.351.614-18.547-2.415-10.154-4.176-21.061-3.464-31.274-.871,2.1-1.762,4.177-2.593,6.314a379.425,379.425,0,0,0-20.586,77.156c1.029,16.172,10.53,32.561,18.943,46.2.97.713,1.96,1.366,2.89,1.979,10.412,6.69,21.575,12.074,31.729,19.141,17.6,12.213,20.8,33.649,27.87,52.671-6.294-3.345-12.074-7.7-18.369-10.926-7.581-3.86-15.8-6.552-22.466-12.074-6.809-5.661-11.184-13.618-14.9-21.456a182.69,182.69,0,0,1-10.708-31.235c-6.69-11.045-14.073-24.544-15.974-37.747C83.53,186.1,83.609,217,89.369,246.587a66.311,66.311,0,0,0,11.421,10.827,18.861,18.861,0,0,0,3.583.99c3.682.594,7.462-.139,11.164.1,5.859.376,12.292.93,17.6,3.583a34.682,34.682,0,0,1,10.609,8.788c3.167,3.741,6.671,7.2,9.8,10.986a81.584,81.584,0,0,1,5.661,6.928c-2.593-.475-5.186-.812-7.819-1.188-4.671-.653-9.3-1.465-13.974-2.118-6.017-.831-12.193-1.465-18.032-3.167a25.087,25.087,0,0,1-13.737-10.471c-2.751-4.2-5.107-8.709-7.522-13.084a72.932,72.932,0,0,1-7.918-7.918,213.269,213.269,0,0,0,9.283,31.532,66.617,66.617,0,0,0,5.76,4.493c10.273,7.581,22.347,12.965,31.076,22.6,7.066,7.7,9.64,16.963,12.193,26.84,2.177,8.353,5.523,17.6,5.918,26.326-3.464-4.117-9.244-6.671-13.757-9.382-15.934-9.64-32.244-20.17-40.082-37.767-4.929-11.164-5.384-22.407-5.621-34.026C84.777,254.406,80.8,225.15,81.036,195.915a169.514,169.514,0,0,1-18.151,41.468,51.591,51.591,0,0,0-.713,6.057c-.633,10.53-.515,18.883-7.185,27.87-9.382,12.708-24.8,19-34.679,31.076.4-3.721,1.148-7.442,1.405-11.3.4-6.294-.119-12.965,2.316-19,2.573-6.176,7.581-8.729,12.589-12.45C43.9,254.069,49.682,247,56.61,241.085q3.236-5.136,6.275-10.412c2.415-4.256,4.612-8.61,6.671-13.024a80.8,80.8,0,0,1-9.877,7.66Z" transform="translate(0 0)" fill="#fef2ef"></path></g></svg>