<svg xmlns="http://www.w3.org/2000/svg" width="451.711" height="538.632" viewBox="0 0 451.711 538.632"><g id="White_plant" data-name="White plant" transform="matrix(0.921, 0.391, -0.391, 0.921, 179.609, 0)"><path id="Path_346" data-name="Path 346" d="M241.415,272.36c-29.8,11.206-57.974,25.291-63.629,58.934-1.634,10.868-1.556,21.555-5.577,31.412a194.631,194.631,0,0,0-20.025,28.663c6.329-43.526,6.952-88.686.8-132.523a1.3,1.3,0,0,0,.363-.882c.83-23.656,9.935-42.462,21.841-61.372,3.865-2.412,8.093-4.28,12.425-6.459,22.723-11.932,48.428-23.656,55.328-50.892,7.367-28.922-9.26-63.265-18.105-90.605-12.191,28.818-40.906,47-52.527,75.95-10.038,24.642-1.868,50.5-6.044,75.457C158.54,212.7,151.847,226.4,150.083,240.9a384.818,384.818,0,0,0-16-59.867c-1.868-10.687-4.954-21.14-6.225-31.7-3.813-30.193-1.4-58.674-23.086-83.472C79.763,37.689,38.13,21.348,6.978,0,11.647,18.287,19.61,35.666,26.821,53.434c16.134,42.7,29.052,83.913,70.5,107.491,8.534,4.695,23.6,10.505,31.231,18.806,14.344,40.595,20.829,83.368,21.737,126.686-4.877-9.312-11.932-17.846-20.181-25.654-.571-1.919-1.115-3.839-1.79-5.629-14.007-54.861-64.848-59.79-113.924-73.33,22.93,20.284,25.654,54.446,55.069,71.047,17.3,9.234,37.975,7.678,55.951,13.8,10.557,10.012,19.454,21.27,25.005,34.6-.259,37.586-4.487,75.431-11.128,112.5a101.581,101.581,0,0,0-11.621-19.688c.13-3.45.285-7,.363-10.3C130.888,327.455,55.458,323.616,0,297.988A276.7,276.7,0,0,1,19.688,334.38c15.719,31.049,28.948,64.459,65.47,75.145,10.583,2.931,24.149,1.4,34.681,5.006a121.732,121.732,0,0,1,18.054,25.524,1.824,1.824,0,0,0,.208.259c-1.089,5.836-2.231,11.7-3.424,17.509a1.479,1.479,0,0,0,2.853.778,481.408,481.408,0,0,0,12.606-54.42,408.219,408.219,0,0,1,28.948-38.7c4.617-.623,9.39-.078,14.63.6,25.083,1.453,54.783,12.684,76.546-6.8C292.9,338.816,293.6,281.335,295.6,252.128c-17.794,7.237-35.977,13.748-54.161,20.258Z" transform="translate(0)" fill="#fff"></path></g></svg>